<svg width="881" height="120" viewBox="0 0 881 120" fill="none" xmlns="http://www.w3.org/2000/svg">
<g clip-path="url(#clip0_406_71)">
<path d="M94.1864 4.26813L100.55 10.6318C100.669 10.7511 100.831 10.8182 101 10.8182C101.169 10.8182 101.331 10.7511 101.45 10.6318L107.814 4.26809C108.062 4.01957 108.062 3.61666 107.814 3.36814C107.565 3.11966 107.162 3.11962 106.914 3.36814L101 9.28178L95.0863 3.36814C94.9621 3.24388 94.7992 3.18177 94.6363 3.18177C94.4735 3.18177 94.3106 3.24388 94.1864 3.36819C93.9379 3.61671 93.9379 4.01961 94.1864 4.26813Z" fill="#0072B6"/>
</g>
<g clip-path="url(#clip1_406_71)">
<path d="M60 0H49.2241V10.7759H60V0Z" fill="#0072B6"/>
<path d="M45.7759 0H35V10.7759H45.7759V0Z" fill="#0072B6"/>
<path d="M45.7759 14.2241H35V25H45.7759V14.2241Z" fill="#0072B6"/>
<path d="M60 14.2241H49.2241V25H60V14.2241Z" fill="#0072B6"/>
</g>
<g clip-path="url(#clip2_406_71)">
<path d="M70.1864 4.26813L76.5502 10.6318C76.6695 10.7511 76.8314 10.8182 77.0002 10.8182C77.169 10.8182 77.3308 10.7511 77.4501 10.6318L83.8136 4.26809C84.0622 4.01957 84.0622 3.61666 83.8136 3.36814C83.5652 3.11966 83.1622 3.11962 82.9137 3.36814L77.0002 9.28178L71.0863 3.36814C70.9621 3.24388 70.7992 3.18177 70.6363 3.18177C70.4735 3.18177 70.3106 3.24388 70.1864 3.36819C69.9379 3.61671 69.9379 4.01961 70.1864 4.26813Z" fill="black"/>
</g>
<g clip-path="url(#clip3_406_71)">
<path d="M437.696 11.7149L426.285 0.30384C426.091 0.109292 425.827 0 425.551 0H405.046C401.161 0 398 3.16101 398 7.04642V32.9538C398 36.8392 401.161 40.0002 405.046 40.0002H430.954C434.839 40.0002 438 36.8392 438 32.9538V12.4484C438 12.1733 437.89 11.9094 437.696 11.7149ZM426.416 3.36956L434.63 11.5838H426.416V3.36956ZM430.954 37.9248H405.046C402.305 37.9248 400.075 35.6947 400.075 32.9536V7.04642C400.075 4.30529 402.305 2.07517 405.046 2.07517H424.341V12.6214C424.341 13.1943 424.805 13.659 425.378 13.659H435.925V32.9536C435.925 35.6947 433.695 37.9248 430.954 37.9248Z" fill="black"/>
<path d="M415.955 9.06149C414.94 8.0469 413.592 7.48816 412.157 7.48816C410.722 7.48816 409.373 8.0469 408.358 9.06149C407.344 10.0761 406.785 11.425 406.785 12.8598C406.785 14.2946 407.344 15.6435 408.358 16.658L419 27.2995C420.376 28.6754 422.614 28.675 423.99 27.2995C425.366 25.9237 425.366 23.6854 423.99 22.3096L413.454 11.7736C413.048 11.3684 412.391 11.3684 411.986 11.7736C411.581 12.1788 411.581 12.8357 411.986 13.2409L422.522 23.7771C423.089 24.3436 423.089 25.2657 422.522 25.8322C421.956 26.3987 421.034 26.3987 420.467 25.8322L409.826 15.1909C409.203 14.5682 408.86 13.7403 408.86 12.86C408.86 11.9794 409.203 11.1516 409.826 10.529C411.111 9.24358 413.202 9.24358 414.488 10.529L425.638 21.6789C427.638 23.6792 427.638 26.934 425.638 28.9342C424.669 29.9032 423.38 30.4368 422.01 30.4368C420.64 30.4368 419.351 29.9032 418.382 28.9342L409.81 20.3614C409.404 19.9562 408.747 19.9562 408.342 20.3614C407.937 20.7665 407.937 21.4235 408.342 21.8287L416.915 30.4014C418.276 31.7624 420.085 32.5118 422.01 32.5118C423.935 32.5118 425.744 31.7624 427.105 30.4014C428.466 29.0404 429.215 27.2311 429.215 25.3063C429.215 23.3818 428.466 21.5722 427.105 20.2114L415.955 9.06149Z" fill="black"/>
</g>
<path d="M131.41 11.9999L135.71 7.70994C135.898 7.52164 136.004 7.26624 136.004 6.99994C136.004 6.73364 135.898 6.47825 135.71 6.28994C135.522 6.10164 135.266 5.99585 135 5.99585C134.734 5.99585 134.478 6.10164 134.29 6.28994L130 10.5899L125.71 6.28994C125.522 6.10164 125.266 5.99585 125 5.99585C124.734 5.99585 124.478 6.10164 124.29 6.28994C124.102 6.47825 123.996 6.73364 123.996 6.99994C123.996 7.26624 124.102 7.52164 124.29 7.70994L128.59 11.9999L124.29 16.2899C124.196 16.3829 124.122 16.4935 124.071 16.6153C124.02 16.7372 123.994 16.8679 123.994 16.9999C123.994 17.1319 124.02 17.2626 124.071 17.3845C124.122 17.5063 124.196 17.6169 124.29 17.7099C124.383 17.8036 124.494 17.878 124.615 17.9288C124.737 17.9796 124.868 18.0057 125 18.0057C125.132 18.0057 125.263 17.9796 125.385 17.9288C125.506 17.878 125.617 17.8036 125.71 17.7099L130 13.4099L134.29 17.7099C134.383 17.8036 134.494 17.878 134.615 17.9288C134.737 17.9796 134.868 18.0057 135 18.0057C135.132 18.0057 135.263 17.9796 135.385 17.9288C135.506 17.878 135.617 17.8036 135.71 17.7099C135.804 17.6169 135.878 17.5063 135.929 17.3845C135.98 17.2626 136.006 17.1319 136.006 16.9999C136.006 16.8679 135.98 16.7372 135.929 16.6153C135.878 16.4935 135.804 16.3829 135.71 16.2899L131.41 11.9999Z" fill="black"/>
<path d="M165.41 11.9999L169.71 7.70994C169.898 7.52164 170.004 7.26624 170.004 6.99994C170.004 6.73364 169.898 6.47825 169.71 6.28994C169.522 6.10164 169.266 5.99585 169 5.99585C168.734 5.99585 168.478 6.10164 168.29 6.28994L164 10.5899L159.71 6.28994C159.522 6.10164 159.266 5.99585 159 5.99585C158.734 5.99585 158.478 6.10164 158.29 6.28994C158.102 6.47825 157.996 6.73364 157.996 6.99994C157.996 7.26624 158.102 7.52164 158.29 7.70994L162.59 11.9999L158.29 16.2899C158.196 16.3829 158.122 16.4935 158.071 16.6153C158.02 16.7372 157.994 16.8679 157.994 16.9999C157.994 17.1319 158.02 17.2626 158.071 17.3845C158.122 17.5063 158.196 17.6169 158.29 17.7099C158.383 17.8036 158.494 17.878 158.615 17.9288C158.737 17.9796 158.868 18.0057 159 18.0057C159.132 18.0057 159.263 17.9796 159.385 17.9288C159.506 17.878 159.617 17.8036 159.71 17.7099L164 13.4099L168.29 17.7099C168.383 17.8036 168.494 17.878 168.615 17.9288C168.737 17.9796 168.868 18.0057 169 18.0057C169.132 18.0057 169.263 17.9796 169.385 17.9288C169.506 17.878 169.617 17.8036 169.71 17.7099C169.804 17.6169 169.878 17.5063 169.929 17.3845C169.98 17.2626 170.006 17.1319 170.006 16.9999C170.006 16.8679 169.98 16.7372 169.929 16.6153C169.878 16.4935 169.804 16.3829 169.71 16.2899L165.41 11.9999Z" fill="#0072B6"/>
<path d="M285.02 1.41333C284.944 1.41333 284.867 1.42217 284.79 1.44069L271 4.73918L257.21 1.44076C257.133 1.42223 257.056 1.4134 256.98 1.4134C256.454 1.4132 256 1.84102 256 2.39557V24.2515C256 24.7058 256.312 25.1008 256.753 25.2064C256.904 25.2424 270.696 28.5419 270.786 28.5622C270.857 28.5779 270.929 28.5865 271.003 28.5865C271.076 28.5865 271.151 28.5779 271.228 28.5596L285.247 25.2064C285.688 25.1008 286 24.7058 286 24.2515V2.39557C286 1.84083 285.546 1.41333 285.02 1.41333ZM284.036 23.4768L271.001 26.5947C271.001 26.5946 271 26.5945 271 26.5944V6.75825H271L271.457 6.64901L284.036 3.64003V23.4768Z" fill="black"/>
<path d="M273.257 15.3397L278.372 14.0862C278.704 14.005 278.937 13.7077 278.937 13.3664V8.76077C278.937 8.27999 278.486 7.92652 278.019 8.04094L272.905 9.2945C272.573 9.3758 272.34 9.67297 272.34 10.0143V14.6199C272.34 15.1007 272.79 15.4542 273.257 15.3397Z" fill="black"/>
<path d="M272.37 18.4754C272.481 18.9213 272.881 19.2187 273.321 19.2187C273.4 19.2187 273.481 19.209 273.561 19.1889L281.884 17.1239C282.41 16.992 282.729 16.4587 282.597 15.9327C282.465 15.4067 281.932 15.0872 281.406 15.2192L273.083 17.2842C272.557 17.4161 272.238 17.9494 272.37 18.4754Z" fill="black"/>
<path d="M281.406 18.7978L273.083 20.8628C272.557 20.9947 272.238 21.528 272.37 22.054C272.481 22.4999 272.881 22.7973 273.321 22.7973C273.4 22.7973 273.481 22.7877 273.561 22.7676L281.884 20.7025C282.41 20.5706 282.729 20.0374 282.597 19.5114C282.465 18.9853 281.932 18.6658 281.406 18.7978Z" fill="black"/>
<g clip-path="url(#clip4_406_71)">
<path d="M210.685 23.1991L203.512 16.0211C204.926 14.3252 205.777 12.158 205.777 9.79096C205.777 4.39082 201.345 0 195.893 0C190.442 0 186 4.39594 186 9.79609C186 15.1962 190.432 19.587 195.883 19.587C198.199 19.587 200.33 18.7929 202.021 17.4659L209.22 24.6644C209.64 25.0845 210.265 25.0845 210.685 24.6644C211.105 24.2443 211.105 23.6192 210.685 23.1991ZM188.101 9.79609C188.101 5.55385 191.595 2.10575 195.883 2.10575C200.171 2.10575 203.666 5.55385 203.666 9.79609C203.666 14.0383 200.171 17.4864 195.883 17.4864C191.595 17.4864 188.101 14.0332 188.101 9.79609Z" fill="black"/>
</g>
<g clip-path="url(#clip5_406_71)">
<path d="M356.162 18.5675L350.424 12.8251C351.555 11.4684 352.236 9.73459 352.236 7.84095C352.236 3.52083 348.69 0.00817871 344.329 0.00817871C339.968 0.00817871 336.415 3.52493 336.415 7.84505C336.415 12.1652 339.96 15.6778 344.321 15.6778C346.174 15.6778 347.879 15.0425 349.231 13.9809L354.99 19.7397C355.326 20.0758 355.826 20.0758 356.162 19.7397C356.499 19.4036 356.499 18.9036 356.162 18.5675ZM338.095 7.84505C338.095 4.45126 340.89 1.69278 344.321 1.69278C347.752 1.69278 350.547 4.45126 350.547 7.84505C350.547 11.2388 347.752 13.9973 344.321 13.9973C340.89 13.9973 338.095 11.2347 338.095 7.84505Z" fill="black"/>
</g>
<g clip-path="url(#clip6_406_71)">
<path d="M487.696 11.7149L476.285 0.30384C476.091 0.109292 475.827 0 475.551 0H455.046C451.161 0 448 3.16101 448 7.04642V32.9538C448 36.8392 451.161 40.0002 455.046 40.0002H480.954C484.839 40.0002 488 36.8392 488 32.9538V12.4484C488 12.1733 487.89 11.9094 487.696 11.7149ZM476.416 3.36956L484.63 11.5838H476.416V3.36956ZM480.954 37.9248H455.046C452.305 37.9248 450.075 35.6947 450.075 32.9536V7.04642C450.075 4.30529 452.305 2.07517 455.046 2.07517H474.341V12.6214C474.341 13.1943 474.805 13.659 475.378 13.659H485.925V32.9536C485.925 35.6947 483.695 37.9248 480.954 37.9248Z" fill="#0072B0"/>
<path d="M465.955 9.06149C464.94 8.0469 463.592 7.48816 462.157 7.48816C460.722 7.48816 459.373 8.0469 458.358 9.06149C457.344 10.0761 456.785 11.425 456.785 12.8598C456.785 14.2946 457.344 15.6435 458.358 16.658L469 27.2995C470.376 28.6754 472.614 28.675 473.99 27.2995C475.366 25.9237 475.366 23.6854 473.99 22.3096L463.454 11.7736C463.048 11.3684 462.391 11.3684 461.986 11.7736C461.581 12.1788 461.581 12.8357 461.986 13.2409L472.522 23.7771C473.089 24.3436 473.089 25.2657 472.522 25.8322C471.956 26.3987 471.034 26.3987 470.467 25.8322L459.826 15.1909C459.203 14.5682 458.86 13.7403 458.86 12.86C458.86 11.9794 459.203 11.1516 459.826 10.529C461.111 9.24358 463.202 9.24358 464.488 10.529L475.638 21.6789C477.638 23.6792 477.638 26.934 475.638 28.9342C474.669 29.9032 473.38 30.4368 472.01 30.4368C470.64 30.4368 469.351 29.9032 468.382 28.9342L459.81 20.3614C459.404 19.9562 458.747 19.9562 458.342 20.3614C457.937 20.7665 457.937 21.4235 458.342 21.8287L466.915 30.4014C468.276 31.7624 470.085 32.5118 472.01 32.5118C473.935 32.5118 475.744 31.7624 477.105 30.4014C478.466 29.0404 479.215 27.2311 479.215 25.3063C479.215 23.3818 478.466 21.5722 477.105 20.2114L465.955 9.06149Z" fill="#0072B0"/>
</g>
<path d="M325.02 1.41333C324.944 1.41333 324.867 1.42217 324.79 1.44069L311 4.73918L297.21 1.44076C297.133 1.42223 297.056 1.4134 296.98 1.4134C296.454 1.4132 296 1.84102 296 2.39557V24.2515C296 24.7058 296.312 25.1008 296.753 25.2064C296.904 25.2424 310.696 28.5419 310.786 28.5622C310.857 28.5779 310.929 28.5865 311.003 28.5865C311.076 28.5865 311.151 28.5779 311.228 28.5596L325.247 25.2064C325.688 25.1008 326 24.7058 326 24.2515V2.39557C326 1.84083 325.546 1.41333 325.02 1.41333ZM324.036 23.4768L311.001 26.5947C311.001 26.5946 311 26.5945 311 26.5944V6.75825H311L311.457 6.64901L324.036 3.64003V23.4768Z" fill="#0072B6"/>
<path d="M313.257 15.3397L318.372 14.0862C318.704 14.005 318.937 13.7077 318.937 13.3664V8.76077C318.937 8.27999 318.486 7.92652 318.019 8.04094L312.905 9.2945C312.573 9.3758 312.34 9.67297 312.34 10.0143V14.6199C312.34 15.1007 312.79 15.4542 313.257 15.3397Z" fill="#0072B6"/>
<path d="M312.37 18.4754C312.481 18.9213 312.881 19.2187 313.321 19.2187C313.4 19.2187 313.481 19.209 313.561 19.1889L321.884 17.1239C322.41 16.992 322.729 16.4587 322.597 15.9327C322.465 15.4067 321.932 15.0872 321.406 15.2192L313.083 17.2842C312.557 17.4161 312.238 17.9494 312.37 18.4754Z" fill="#0072B6"/>
<path d="M321.406 18.7978L313.083 20.8628C312.557 20.9947 312.238 21.528 312.37 22.054C312.481 22.4999 312.881 22.7973 313.321 22.7973C313.4 22.7973 313.481 22.7877 313.561 22.7676L321.884 20.7025C322.41 20.5706 322.729 20.0374 322.597 19.5114C322.465 18.9853 321.932 18.6658 321.406 18.7978Z" fill="#0072B6"/>
<g clip-path="url(#clip7_406_71)">
<path d="M387.162 18.5675L381.424 12.8251C382.555 11.4684 383.236 9.73459 383.236 7.84095C383.236 3.52083 379.69 0.00817871 375.329 0.00817871C370.968 0.00817871 367.415 3.52493 367.415 7.84505C367.415 12.1652 370.96 15.6778 375.321 15.6778C377.174 15.6778 378.879 15.0425 380.231 13.9809L385.99 19.7397C386.326 20.0758 386.826 20.0758 387.162 19.7397C387.499 19.4036 387.499 18.9036 387.162 18.5675ZM369.095 7.84505C369.095 4.45126 371.89 1.69278 375.321 1.69278C378.752 1.69278 381.547 4.45126 381.547 7.84505C381.547 11.2388 378.752 13.9973 375.321 13.9973C371.89 13.9973 369.095 11.2347 369.095 7.84505Z" fill="#0072B6"/>
</g>
<g clip-path="url(#clip8_406_71)">
<path d="M518 0C506.972 0 498 8.97188 498 20C498 31.0279 506.972 40 518 40C529.028 40 538 31.0279 538 20C538 8.97188 529.028 0 518 0ZM518 36.3636C508.977 36.3636 501.636 29.0229 501.636 20C501.636 10.9771 508.977 3.63636 518 3.63636C527.023 3.63636 534.364 10.9771 534.364 20C534.364 29.0229 527.023 36.3636 518 36.3636Z" fill="black"/>
<path d="M523.656 15.4086L519.818 19.2469V9.09089C519.818 8.08664 519.004 7.27271 517.999 7.27271C516.995 7.27271 516.181 8.08664 516.181 9.09089V19.2469L512.343 15.4086C511.633 14.6986 510.482 14.6986 509.772 15.4086C509.062 16.1188 509.062 17.2698 509.772 17.9799L516.714 24.9218C517.069 25.2769 517.534 25.4545 517.999 25.4545C518.465 25.4545 518.93 25.2769 519.285 24.922L526.227 17.9801C526.937 17.2702 526.938 16.1189 526.228 15.4086C525.517 14.6986 524.366 14.6986 523.656 15.4086Z" fill="black"/>
<path d="M521.637 29.0909H514.364C513.36 29.0909 512.546 29.9049 512.546 30.9091C512.546 31.9131 513.36 32.7273 514.364 32.7273H521.637C522.641 32.7273 523.455 31.9131 523.455 30.9091C523.455 29.9049 522.641 29.0909 521.637 29.0909Z" fill="black"/>
</g>
<g clip-path="url(#clip9_406_71)">
<path d="M245.685 23.1991L238.512 16.0211C239.926 14.3252 240.777 12.158 240.777 9.79096C240.777 4.39082 236.345 0 230.893 0C225.442 0 221 4.39594 221 9.79609C221 15.1962 225.432 19.587 230.883 19.587C233.199 19.587 235.33 18.7929 237.021 17.4659L244.22 24.6644C244.64 25.0845 245.265 25.0845 245.685 24.6644C246.105 24.2443 246.105 23.6192 245.685 23.1991ZM223.101 9.79609C223.101 5.55385 226.595 2.10575 230.883 2.10575C235.171 2.10575 238.666 5.55385 238.666 9.79609C238.666 14.0383 235.171 17.4864 230.883 17.4864C226.595 17.4864 223.101 14.0332 223.101 9.79609Z" fill="#0072B6"/>
</g>
<g clip-path="url(#clip10_406_71)">
<path d="M25 0H14.2241V10.7759H25V0Z" fill="black"/>
<path d="M10.7759 0H0V10.7759H10.7759V0Z" fill="black"/>
<path d="M10.7759 14.2241H0V25H10.7759V14.2241Z" fill="black"/>
<path d="M25 14.2241H14.2241V25H25V14.2241Z" fill="black"/>
</g>
<g clip-path="url(#clip11_406_71)">
<path d="M568 0C556.972 0 548 8.97188 548 20C548 31.0279 556.972 40 568 40C579.028 40 588 31.0279 588 20C588 8.97188 579.028 0 568 0ZM568 36.3636C558.977 36.3636 551.636 29.0229 551.636 20C551.636 10.9771 558.977 3.63636 568 3.63636C577.023 3.63636 584.364 10.9771 584.364 20C584.364 29.0229 577.023 36.3636 568 36.3636Z" fill="#0072B6"/>
<path d="M573.656 15.4086L569.818 19.2469V9.09089C569.818 8.08664 569.004 7.27271 567.999 7.27271C566.995 7.27271 566.181 8.08664 566.181 9.09089V19.2469L562.343 15.4086C561.633 14.6986 560.482 14.6986 559.772 15.4086C559.062 16.1188 559.062 17.2698 559.772 17.9799L566.714 24.9218C567.069 25.2769 567.534 25.4545 567.999 25.4545C568.465 25.4545 568.93 25.2769 569.285 24.922L576.227 17.9801C576.937 17.2702 576.938 16.1189 576.228 15.4086C575.517 14.6986 574.366 14.6986 573.656 15.4086Z" fill="#0072B6"/>
<path d="M571.637 29.0909H564.364C563.36 29.0909 562.546 29.9049 562.546 30.9091C562.546 31.9131 563.36 32.7273 564.364 32.7273H571.637C572.641 32.7273 573.455 31.9131 573.455 30.9091C573.455 29.9049 572.641 29.0909 571.637 29.0909Z" fill="#0072B6"/>
</g>
<g clip-path="url(#clip12_406_71)">
<path d="M878.17 0H862.83C861.267 0 860 1.26692 860 2.82979V18.1701C860 19.733 861.267 20.9999 862.83 20.9999H870.396L870.408 13.4957H868.459C868.205 13.4957 868 13.2908 867.999 13.0374L867.989 10.6185C867.989 10.3638 868.195 10.1567 868.45 10.1567H870.396V7.81944C870.396 5.10703 872.052 3.63011 874.472 3.63011H876.457C876.711 3.63011 876.917 3.83605 876.917 4.09014V6.12979C876.917 6.38377 876.712 6.58966 876.458 6.58982L875.239 6.59038C873.923 6.59038 873.668 7.21567 873.668 8.13332V10.1568H876.56C876.835 10.1568 877.049 10.3974 877.017 10.671L876.73 13.0899C876.703 13.3214 876.506 13.4958 876.273 13.4958H873.681L873.668 21H878.17C879.733 21 881 19.7331 881 18.1703V2.82979C881 1.26692 879.733 0 878.17 0Z" fill="white"/>
</g>
<g clip-path="url(#clip13_406_71)">
<path d="M846.631 0.705078H828.369C826.508 0.705078 825 2.21332 825 4.07388V22.3361C825 24.1967 826.508 25.7049 828.369 25.7049H837.376L837.391 16.7713H835.07C834.768 16.7713 834.524 16.5274 834.522 16.2258L834.511 13.3461C834.51 13.0429 834.756 12.7964 835.059 12.7964H837.376V10.0139C837.376 6.78488 839.348 5.02663 842.228 5.02663H844.592C844.894 5.02663 845.14 5.27181 845.14 5.57429V8.00244C845.14 8.3048 844.895 8.54992 844.592 8.5501L843.142 8.55077C841.575 8.55077 841.272 9.29517 841.272 10.3876V12.7965H844.714C845.042 12.7965 845.296 13.0828 845.258 13.4086L844.917 16.2882C844.884 16.5638 844.65 16.7714 844.373 16.7714H841.287L841.272 25.705H846.631C848.492 25.705 850 24.1968 850 22.3363V4.07388C850 2.21332 848.491 0.705078 846.631 0.705078Z" fill="#475993"/>
</g>
<g clip-path="url(#clip14_406_71)">
<path d="M776.552 0.705078H766.448C762.341 0.705078 759 4.04607 759 8.15271V18.2574C759 22.364 762.341 25.705 766.448 25.705H776.552C780.659 25.705 784 22.364 784 18.2574V8.15271C784 4.04607 780.659 0.705078 776.552 0.705078ZM781.485 18.2574C781.485 20.9816 779.277 23.19 776.552 23.19H766.448C763.723 23.19 761.515 20.9816 761.515 18.2574V8.15271C761.515 5.42847 763.723 3.22008 766.448 3.22008H776.552C779.277 3.22008 781.485 5.42847 781.485 8.15271V18.2574Z" fill="url(#paint0_linear_406_71)"/>
<path d="M771.5 6.73926C767.935 6.73926 765.034 9.63985 765.034 13.2051C765.034 16.7704 767.935 19.671 771.5 19.671C775.065 19.671 777.966 16.7704 777.966 13.2051C777.966 9.6398 775.065 6.73926 771.5 6.73926ZM771.5 17.156C769.318 17.156 767.549 15.3872 767.549 13.2051C767.549 11.0231 769.318 9.25426 771.5 9.25426C773.682 9.25426 775.451 11.0231 775.451 13.2051C775.451 15.3871 773.682 17.156 771.5 17.156Z" fill="url(#paint1_linear_406_71)"/>
<path d="M777.978 8.33715C778.834 8.33715 779.527 7.6435 779.527 6.78784C779.527 5.93218 778.834 5.23853 777.978 5.23853C777.122 5.23853 776.429 5.93218 776.429 6.78784C776.429 7.6435 777.122 8.33715 777.978 8.33715Z" fill="url(#paint2_linear_406_71)"/>
</g>
<g clip-path="url(#clip15_406_71)">
<path d="M796.696 0.0012207H812.305C813.788 0.0012207 815 1.21389 815 2.69677V18.3052C815 19.7877 813.788 20.9995 812.305 20.9995H796.696C795.214 20.9995 794 19.7876 794 18.3052V2.69677C794 1.21389 795.214 0.0012207 796.696 0.0012207ZM809.298 2.33341C808.778 2.33341 808.353 2.75977 808.353 3.28017V5.54214C808.353 6.06271 808.777 6.48813 809.298 6.48813H811.671C812.191 6.48813 812.617 6.06276 812.617 5.54214V3.28013C812.617 2.75977 812.191 2.33337 811.671 2.33337C811.671 2.33341 809.298 2.33341 809.298 2.33341ZM812.626 8.8811H810.778C810.953 9.45335 811.048 10.0568 811.048 10.6842C811.048 14.176 808.125 17.008 804.52 17.008C800.916 17.008 797.992 14.176 797.992 10.6842C797.992 10.0568 798.088 9.45335 798.262 8.8811H796.334V17.7523C796.334 18.2117 796.71 18.5855 797.169 18.5855H811.792C812.252 18.5855 812.626 18.2117 812.626 17.7523V8.8811ZM804.52 6.36881C802.192 6.36881 800.303 8.19778 800.303 10.456C800.303 12.7119 802.192 14.5422 804.52 14.5422C806.849 14.5422 808.738 12.7119 808.738 10.456C808.738 8.1977 806.849 6.36881 804.52 6.36881Z" fill="white"/>
</g>
<g clip-path="url(#clip16_406_71)">
<path d="M658 120C691.137 120 718 93.1373 718 60.0001C718 26.863 691.137 0 658 0C624.863 0 598 26.863 598 60.0001C598 93.1373 624.863 120 658 120Z" fill="#D42428"/>
<path d="M700.424 17.5671C723.856 41.0007 723.858 78.992 700.424 102.425C676.993 125.857 638.999 125.858 615.566 102.425L700.424 17.5671Z" fill="#CC202D"/>
<path d="M716.794 72.0173L687.098 42.3221L652.075 46.3098L630.89 79.1073L670.475 118.693C693.75 113.769 712.047 95.3587 716.794 72.0173Z" fill="#BA202E"/>
<path d="M689.399 48.4217C689.399 43.3919 685.323 39.3151 680.297 39.3151H637.594C632.568 39.3151 628.494 43.3929 628.494 48.4217V72.8413C628.494 77.8713 632.568 81.948 637.594 81.948H680.296C685.324 81.948 689.397 77.87 689.397 72.8413V48.4217H689.399ZM652.854 70.9333V47.9974L670.247 59.4659L652.854 70.9333Z" fill="white"/>
</g>
<path fill-rule="evenodd" clip-rule="evenodd" d="M736.332 13.6089L736.331 7.70853L742.005 10.6689L736.332 13.6089ZM748.79 6.68609C748.79 6.68609 748.585 5.23906 747.955 4.60184C747.157 3.76513 746.261 3.76119 745.851 3.71263C742.913 3.5 738.505 3.5 738.505 3.5H738.495C738.495 3.5 734.087 3.5 731.149 3.71263C730.738 3.76119 729.843 3.76513 729.044 4.60184C728.415 5.23906 728.21 6.68609 728.21 6.68609C728.21 6.68609 728 8.38578 728 10.0848V11.6782C728 13.3779 728.21 15.0769 728.21 15.0769C728.21 15.0769 728.415 16.5239 729.044 17.1612C729.843 17.9979 730.893 17.9716 731.36 18.0589C733.04 18.2203 738.5 18.2702 738.5 18.2702C738.5 18.2702 742.913 18.2637 745.851 18.051C746.261 18.0018 747.157 17.9979 747.955 17.1612C748.585 16.5239 748.79 15.0769 748.79 15.0769C748.79 15.0769 749 13.3779 749 11.6782V10.0848C749 8.38578 748.79 6.68609 748.79 6.68609Z" fill="white"/>
<defs>
<linearGradient id="paint0_linear_406_71" x1="771.5" y1="25.6322" x2="771.5" y2="0.899248" gradientUnits="userSpaceOnUse">
<stop stop-color="#E09B3D"/>
<stop offset="0.3" stop-color="#C74C4D"/>
<stop offset="0.6" stop-color="#C21975"/>
<stop offset="1" stop-color="#7024C4"/>
</linearGradient>
<linearGradient id="paint1_linear_406_71" x1="771.5" y1="25.6323" x2="771.5" y2="0.899317" gradientUnits="userSpaceOnUse">
<stop stop-color="#E09B3D"/>
<stop offset="0.3" stop-color="#C74C4D"/>
<stop offset="0.6" stop-color="#C21975"/>
<stop offset="1" stop-color="#7024C4"/>
</linearGradient>
<linearGradient id="paint2_linear_406_71" x1="777.978" y1="25.6323" x2="777.978" y2="0.899261" gradientUnits="userSpaceOnUse">
<stop stop-color="#E09B3D"/>
<stop offset="0.3" stop-color="#C74C4D"/>
<stop offset="0.6" stop-color="#C21975"/>
<stop offset="1" stop-color="#7024C4"/>
</linearGradient>
<clipPath id="clip0_406_71">
<rect width="14" height="14" fill="white" transform="translate(94)"/>
</clipPath>
<clipPath id="clip1_406_71">
<rect width="25" height="25" fill="white" transform="translate(35)"/>
</clipPath>
<clipPath id="clip2_406_71">
<rect width="14" height="14" fill="white" transform="translate(70)"/>
</clipPath>
<clipPath id="clip3_406_71">
<rect width="40" height="40" fill="white" transform="translate(398)"/>
</clipPath>
<clipPath id="clip4_406_71">
<rect width="25" height="25" fill="white" transform="translate(186)"/>
</clipPath>
<clipPath id="clip5_406_71">
<rect width="21" height="20" fill="white" transform="translate(336)"/>
</clipPath>
<clipPath id="clip6_406_71">
<rect width="40" height="40" fill="white" transform="translate(448)"/>
</clipPath>
<clipPath id="clip7_406_71">
<rect width="21" height="20" fill="white" transform="translate(367)"/>
</clipPath>
<clipPath id="clip8_406_71">
<rect width="40" height="40" fill="white" transform="translate(498)"/>
</clipPath>
<clipPath id="clip9_406_71">
<rect width="25" height="25" fill="white" transform="translate(221)"/>
</clipPath>
<clipPath id="clip10_406_71">
<rect width="25" height="25" fill="white"/>
</clipPath>
<clipPath id="clip11_406_71">
<rect width="40" height="40" fill="white" transform="translate(548)"/>
</clipPath>
<clipPath id="clip12_406_71">
<rect width="21" height="21" fill="white" transform="translate(860)"/>
</clipPath>
<clipPath id="clip13_406_71">
<rect width="25" height="26" fill="white" transform="translate(825)"/>
</clipPath>
<clipPath id="clip14_406_71">
<rect width="25" height="26" fill="white" transform="translate(759)"/>
</clipPath>
<clipPath id="clip15_406_71">
<rect width="21" height="21" fill="white" transform="translate(794)"/>
</clipPath>
<clipPath id="clip16_406_71">
<rect width="120" height="120" fill="white" transform="translate(598)"/>
</clipPath>
</defs>
</svg>
