<svg width="813" height="40" viewBox="0 0 813 40" fill="none" xmlns="http://www.w3.org/2000/svg">
<g clip-path="url(#clip0_406_71)">
<path d="M60 0H49.2241V10.7759H60V0Z" fill="#0072B6"/>
<path d="M45.7759 0H35V10.7759H45.7759V0Z" fill="#0072B6"/>
<path d="M45.7759 14.2241H35V25H45.7759V14.2241Z" fill="#0072B6"/>
<path d="M60 14.2241H49.2241V25H60V14.2241Z" fill="#0072B6"/>
</g>
<g clip-path="url(#clip1_406_71)">
<path d="M74.0834 5.83334L77 8.75L79.9167 5.83334" fill="black"/>
</g>
<g clip-path="url(#clip2_406_71)">
<path d="M98.0834 5.83334L101 8.75L103.917 5.83334" fill="#0072B6"/>
</g>
<g clip-path="url(#clip3_406_71)">
<path d="M437.696 11.7149L426.285 0.30384C426.091 0.109292 425.827 0 425.551 0H405.046C401.161 0 398 3.16101 398 7.04642V32.9538C398 36.8392 401.161 40.0002 405.046 40.0002H430.954C434.839 40.0002 438 36.8392 438 32.9538V12.4484C438 12.1733 437.89 11.9094 437.696 11.7149ZM426.416 3.36956L434.63 11.5838H426.416V3.36956ZM430.954 37.9248H405.046C402.305 37.9248 400.075 35.6947 400.075 32.9536V7.04642C400.075 4.30529 402.305 2.07517 405.046 2.07517H424.341V12.6214C424.341 13.1943 424.806 13.659 425.378 13.659H435.925V32.9536C435.925 35.6947 433.695 37.9248 430.954 37.9248Z" fill="black"/>
<path d="M415.955 9.06143C414.94 8.04684 413.592 7.4881 412.157 7.4881C410.722 7.4881 409.373 8.04684 408.358 9.06143C407.344 10.076 406.785 11.4249 406.785 12.8597C406.785 14.2945 407.344 15.6434 408.358 16.6579L419 27.2994C420.376 28.6753 422.614 28.6749 423.99 27.2994C425.366 25.9236 425.366 23.6853 423.99 22.3095L413.454 11.7735C413.048 11.3683 412.391 11.3683 411.986 11.7735C411.581 12.1787 411.581 12.8356 411.986 13.2408L422.522 23.777C423.089 24.3435 423.089 25.2656 422.522 25.8321C421.956 26.3986 421.034 26.3986 420.467 25.8321L409.826 15.1908C409.203 14.5681 408.86 13.7402 408.86 12.8599C408.86 11.9793 409.203 11.1515 409.826 10.5289C411.111 9.24352 413.202 9.24352 414.488 10.5289L425.638 21.6788C427.638 23.6791 427.638 26.9339 425.638 28.9341C424.669 29.9031 423.38 30.4367 422.01 30.4367C420.64 30.4367 419.351 29.9031 418.382 28.9341L409.81 20.3613C409.404 19.9561 408.747 19.9561 408.342 20.3613C407.937 20.7664 407.937 21.4234 408.342 21.8286L416.915 30.4013C418.276 31.7623 420.085 32.5117 422.01 32.5117C423.935 32.5117 425.744 31.7623 427.105 30.4013C428.466 29.0403 429.215 27.231 429.215 25.3062C429.215 23.3817 428.466 21.5721 427.105 20.2113L415.955 9.06143Z" fill="black"/>
</g>
<path d="M131.41 12L135.71 7.71C135.898 7.5217 136.004 7.2663 136.004 7C136.004 6.7337 135.898 6.47831 135.71 6.29C135.522 6.1017 135.266 5.99591 135 5.99591C134.734 5.99591 134.478 6.1017 134.29 6.29L130 10.59L125.71 6.29C125.522 6.1017 125.266 5.99591 125 5.99591C124.734 5.99591 124.478 6.1017 124.29 6.29C124.102 6.47831 123.996 6.7337 123.996 7C123.996 7.2663 124.102 7.5217 124.29 7.71L128.59 12L124.29 16.29C124.196 16.383 124.122 16.4936 124.071 16.6154C124.02 16.7373 123.994 16.868 123.994 17C123.994 17.132 124.02 17.2627 124.071 17.3846C124.122 17.5064 124.196 17.617 124.29 17.71C124.383 17.8037 124.494 17.8781 124.615 17.9289C124.737 17.9797 124.868 18.0058 125 18.0058C125.132 18.0058 125.263 17.9797 125.385 17.9289C125.506 17.8781 125.617 17.8037 125.71 17.71L130 13.41L134.29 17.71C134.383 17.8037 134.494 17.8781 134.615 17.9289C134.737 17.9797 134.868 18.0058 135 18.0058C135.132 18.0058 135.263 17.9797 135.385 17.9289C135.506 17.8781 135.617 17.8037 135.71 17.71C135.804 17.617 135.878 17.5064 135.929 17.3846C135.98 17.2627 136.006 17.132 136.006 17C136.006 16.868 135.98 16.7373 135.929 16.6154C135.878 16.4936 135.804 16.383 135.71 16.29L131.41 12Z" fill="black"/>
<path d="M165.41 12L169.71 7.71C169.898 7.5217 170.004 7.2663 170.004 7C170.004 6.7337 169.898 6.47831 169.71 6.29C169.522 6.1017 169.266 5.99591 169 5.99591C168.734 5.99591 168.478 6.1017 168.29 6.29L164 10.59L159.71 6.29C159.522 6.1017 159.266 5.99591 159 5.99591C158.734 5.99591 158.478 6.1017 158.29 6.29C158.102 6.47831 157.996 6.7337 157.996 7C157.996 7.2663 158.102 7.5217 158.29 7.71L162.59 12L158.29 16.29C158.196 16.383 158.122 16.4936 158.071 16.6154C158.02 16.7373 157.994 16.868 157.994 17C157.994 17.132 158.02 17.2627 158.071 17.3846C158.122 17.5064 158.196 17.617 158.29 17.71C158.383 17.8037 158.494 17.8781 158.615 17.9289C158.737 17.9797 158.868 18.0058 159 18.0058C159.132 18.0058 159.263 17.9797 159.385 17.9289C159.506 17.8781 159.617 17.8037 159.71 17.71L164 13.41L168.29 17.71C168.383 17.8037 168.494 17.8781 168.615 17.9289C168.737 17.9797 168.868 18.0058 169 18.0058C169.132 18.0058 169.263 17.9797 169.385 17.9289C169.506 17.8781 169.617 17.8037 169.71 17.71C169.804 17.617 169.878 17.5064 169.929 17.3846C169.98 17.2627 170.006 17.132 170.006 17C170.006 16.868 169.98 16.7373 169.929 16.6154C169.878 16.4936 169.804 16.383 169.71 16.29L165.41 12Z" fill="#0072B6"/>
<path d="M285.02 1.41333C284.944 1.41333 284.867 1.42217 284.79 1.44069L271 4.73918L257.21 1.44076C257.133 1.42223 257.056 1.4134 256.98 1.4134C256.454 1.4132 256 1.84102 256 2.39557V24.2515C256 24.7058 256.312 25.1008 256.753 25.2064C256.904 25.2424 270.696 28.5419 270.786 28.5622C270.857 28.5779 270.929 28.5865 271.003 28.5865C271.076 28.5865 271.151 28.5779 271.228 28.5596L285.247 25.2064C285.688 25.1008 286 24.7058 286 24.2515V2.39557C286 1.84083 285.546 1.41333 285.02 1.41333ZM284.036 23.4768L271.001 26.5947C271.001 26.5946 271 26.5945 271 26.5944V6.75825H271L271.457 6.64901L284.036 3.64003V23.4768Z" fill="black"/>
<path d="M273.257 15.3397L278.372 14.0862C278.704 14.005 278.937 13.7077 278.937 13.3664V8.76077C278.937 8.27999 278.486 7.92652 278.019 8.04094L272.905 9.2945C272.573 9.3758 272.34 9.67297 272.34 10.0143V14.6199C272.34 15.1007 272.79 15.4542 273.257 15.3397Z" fill="black"/>
<path d="M272.37 18.4754C272.481 18.9213 272.881 19.2187 273.321 19.2187C273.4 19.2187 273.481 19.209 273.561 19.1889L281.884 17.1239C282.41 16.992 282.729 16.4587 282.597 15.9327C282.465 15.4067 281.932 15.0872 281.406 15.2192L273.083 17.2842C272.557 17.4161 272.238 17.9494 272.37 18.4754Z" fill="black"/>
<path d="M281.406 18.7978L273.083 20.8628C272.557 20.9947 272.238 21.528 272.37 22.054C272.481 22.4999 272.881 22.7973 273.321 22.7973C273.4 22.7973 273.481 22.7877 273.561 22.7676L281.884 20.7025C282.41 20.5706 282.729 20.0374 282.597 19.5114C282.465 18.9853 281.932 18.6658 281.406 18.7978Z" fill="black"/>
<g clip-path="url(#clip4_406_71)">
<path d="M210.685 23.1991L203.512 16.0211C204.926 14.3252 205.777 12.158 205.777 9.79096C205.777 4.39082 201.345 0 195.893 0C190.442 0 186 4.39594 186 9.79609C186 15.1962 190.432 19.587 195.883 19.587C198.199 19.587 200.33 18.7929 202.021 17.4659L209.22 24.6644C209.64 25.0845 210.265 25.0845 210.685 24.6644C211.105 24.2443 211.105 23.6192 210.685 23.1991ZM188.101 9.79609C188.101 5.55385 191.595 2.10575 195.883 2.10575C200.171 2.10575 203.666 5.55385 203.666 9.79609C203.666 14.0383 200.171 17.4864 195.883 17.4864C191.595 17.4864 188.101 14.0332 188.101 9.79609Z" fill="black"/>
</g>
<g clip-path="url(#clip5_406_71)">
<path d="M356.163 18.5675L350.424 12.8251C351.556 11.4684 352.236 9.73459 352.236 7.84095C352.236 3.52083 348.691 0.00817871 344.33 0.00817871C339.968 0.00817871 336.415 3.52493 336.415 7.84505C336.415 12.1652 339.96 15.6778 344.321 15.6778C346.174 15.6778 347.879 15.0425 349.232 13.9809L354.99 19.7397C355.327 20.0758 355.827 20.0758 356.163 19.7397C356.499 19.4036 356.499 18.9036 356.163 18.5675ZM338.095 7.84505C338.095 4.45126 340.891 1.69278 344.321 1.69278C347.752 1.69278 350.547 4.45126 350.547 7.84505C350.547 11.2388 347.752 13.9973 344.321 13.9973C340.891 13.9973 338.095 11.2347 338.095 7.84505Z" fill="black"/>
</g>
<g clip-path="url(#clip6_406_71)">
<path d="M487.696 11.7149L476.285 0.30384C476.091 0.109292 475.827 0 475.551 0H455.046C451.161 0 448 3.16101 448 7.04642V32.9538C448 36.8392 451.161 40.0002 455.046 40.0002H480.954C484.839 40.0002 488 36.8392 488 32.9538V12.4484C488 12.1733 487.89 11.9094 487.696 11.7149ZM476.416 3.36956L484.63 11.5838H476.416V3.36956ZM480.954 37.9248H455.046C452.305 37.9248 450.075 35.6947 450.075 32.9536V7.04642C450.075 4.30529 452.305 2.07517 455.046 2.07517H474.341V12.6214C474.341 13.1943 474.806 13.659 475.378 13.659H485.925V32.9536C485.925 35.6947 483.695 37.9248 480.954 37.9248Z" fill="#0072B0"/>
<path d="M465.955 9.06143C464.94 8.04684 463.592 7.4881 462.157 7.4881C460.722 7.4881 459.373 8.04684 458.358 9.06143C457.344 10.076 456.785 11.4249 456.785 12.8597C456.785 14.2945 457.344 15.6434 458.358 16.6579L469 27.2994C470.376 28.6753 472.614 28.6749 473.99 27.2994C475.366 25.9236 475.366 23.6853 473.99 22.3095L463.454 11.7735C463.048 11.3683 462.391 11.3683 461.986 11.7735C461.581 12.1787 461.581 12.8356 461.986 13.2408L472.522 23.777C473.089 24.3435 473.089 25.2656 472.522 25.8321C471.956 26.3986 471.034 26.3986 470.467 25.8321L459.826 15.1908C459.203 14.5681 458.86 13.7402 458.86 12.8599C458.86 11.9793 459.203 11.1515 459.826 10.5289C461.111 9.24352 463.202 9.24352 464.488 10.5289L475.638 21.6788C477.638 23.6791 477.638 26.9339 475.638 28.9341C474.669 29.9031 473.38 30.4367 472.01 30.4367C470.64 30.4367 469.351 29.9031 468.382 28.9341L459.81 20.3613C459.404 19.9561 458.747 19.9561 458.342 20.3613C457.937 20.7664 457.937 21.4234 458.342 21.8286L466.915 30.4013C468.276 31.7623 470.085 32.5117 472.01 32.5117C473.935 32.5117 475.744 31.7623 477.105 30.4013C478.466 29.0403 479.215 27.231 479.215 25.3062C479.215 23.3817 478.466 21.5721 477.105 20.2113L465.955 9.06143Z" fill="#0072B0"/>
</g>
<path d="M325.02 1.41333C324.944 1.41333 324.867 1.42217 324.79 1.44069L311 4.73918L297.21 1.44076C297.133 1.42223 297.056 1.4134 296.98 1.4134C296.454 1.4132 296 1.84102 296 2.39557V24.2515C296 24.7058 296.312 25.1008 296.753 25.2064C296.904 25.2424 310.696 28.5419 310.786 28.5622C310.857 28.5779 310.929 28.5865 311.003 28.5865C311.076 28.5865 311.151 28.5779 311.228 28.5596L325.247 25.2064C325.688 25.1008 326 24.7058 326 24.2515V2.39557C326 1.84083 325.546 1.41333 325.02 1.41333ZM324.036 23.4768L311.001 26.5947C311.001 26.5946 311 26.5945 311 26.5944V6.75825H311L311.457 6.64901L324.036 3.64003V23.4768Z" fill="#0072B6"/>
<path d="M313.257 15.3397L318.372 14.0862C318.704 14.005 318.937 13.7077 318.937 13.3664V8.76077C318.937 8.27999 318.486 7.92652 318.019 8.04094L312.905 9.2945C312.573 9.3758 312.34 9.67297 312.34 10.0143V14.6199C312.34 15.1007 312.79 15.4542 313.257 15.3397Z" fill="#0072B6"/>
<path d="M312.37 18.4754C312.481 18.9213 312.881 19.2187 313.321 19.2187C313.4 19.2187 313.481 19.209 313.561 19.1889L321.884 17.1239C322.41 16.992 322.729 16.4587 322.597 15.9327C322.465 15.4067 321.932 15.0872 321.406 15.2192L313.083 17.2842C312.557 17.4161 312.238 17.9494 312.37 18.4754Z" fill="#0072B6"/>
<path d="M321.406 18.7978L313.083 20.8628C312.557 20.9947 312.238 21.528 312.37 22.054C312.481 22.4999 312.881 22.7973 313.321 22.7973C313.4 22.7973 313.481 22.7877 313.561 22.7676L321.884 20.7025C322.41 20.5706 322.729 20.0374 322.597 19.5114C322.465 18.9853 321.932 18.6658 321.406 18.7978Z" fill="#0072B6"/>
<g clip-path="url(#clip7_406_71)">
<path d="M387.163 18.5675L381.424 12.8251C382.556 11.4684 383.236 9.73459 383.236 7.84095C383.236 3.52083 379.691 0.00817871 375.33 0.00817871C370.968 0.00817871 367.415 3.52493 367.415 7.84505C367.415 12.1652 370.96 15.6778 375.321 15.6778C377.174 15.6778 378.879 15.0425 380.232 13.9809L385.99 19.7397C386.327 20.0758 386.827 20.0758 387.163 19.7397C387.499 19.4036 387.499 18.9036 387.163 18.5675ZM369.095 7.84505C369.095 4.45126 371.891 1.69278 375.321 1.69278C378.752 1.69278 381.547 4.45126 381.547 7.84505C381.547 11.2388 378.752 13.9973 375.321 13.9973C371.891 13.9973 369.095 11.2347 369.095 7.84505Z" fill="#0072B6"/>
</g>
<g clip-path="url(#clip8_406_71)">
<path d="M518 0C506.972 0 498 8.97188 498 20C498 31.0279 506.972 40 518 40C529.028 40 538 31.0279 538 20C538 8.97188 529.028 0 518 0ZM518 36.3636C508.977 36.3636 501.636 29.0229 501.636 20C501.636 10.9771 508.977 3.63636 518 3.63636C527.023 3.63636 534.364 10.9771 534.364 20C534.364 29.0229 527.023 36.3636 518 36.3636Z" fill="black"/>
<path d="M523.656 15.4086L519.818 19.2469V9.09089C519.818 8.08664 519.004 7.27271 517.999 7.27271C516.995 7.27271 516.181 8.08664 516.181 9.09089V19.2469L512.343 15.4086C511.633 14.6986 510.482 14.6986 509.772 15.4086C509.062 16.1188 509.062 17.2698 509.772 17.9799L516.714 24.9218C517.069 25.2769 517.534 25.4545 517.999 25.4545C518.465 25.4545 518.93 25.2769 519.285 24.922L526.227 17.9801C526.937 17.2702 526.938 16.1189 526.228 15.4086C525.517 14.6986 524.366 14.6986 523.656 15.4086Z" fill="black"/>
<path d="M521.637 29.0909H514.364C513.36 29.0909 512.546 29.9049 512.546 30.9091C512.546 31.9131 513.36 32.7273 514.364 32.7273H521.637C522.641 32.7273 523.455 31.9131 523.455 30.9091C523.455 29.9049 522.641 29.0909 521.637 29.0909Z" fill="black"/>
</g>
<g clip-path="url(#clip9_406_71)">
<path d="M245.685 23.1991L238.512 16.0211C239.926 14.3252 240.777 12.158 240.777 9.79096C240.777 4.39082 236.345 0 230.893 0C225.442 0 221 4.39594 221 9.79609C221 15.1962 225.432 19.587 230.883 19.587C233.199 19.587 235.33 18.7929 237.021 17.4659L244.22 24.6644C244.64 25.0845 245.265 25.0845 245.685 24.6644C246.105 24.2443 246.105 23.6192 245.685 23.1991ZM223.101 9.79609C223.101 5.55385 226.595 2.10575 230.883 2.10575C235.171 2.10575 238.666 5.55385 238.666 9.79609C238.666 14.0383 235.171 17.4864 230.883 17.4864C226.595 17.4864 223.101 14.0332 223.101 9.79609Z" fill="#0072B6"/>
</g>
<g clip-path="url(#clip10_406_71)">
<path d="M25 0H14.2241V10.7759H25V0Z" fill="black"/>
<path d="M10.7759 0H0V10.7759H10.7759V0Z" fill="black"/>
<path d="M10.7759 14.2241H0V25H10.7759V14.2241Z" fill="black"/>
<path d="M25 14.2241H14.2241V25H25V14.2241Z" fill="black"/>
</g>
<g clip-path="url(#clip11_406_71)">
<path d="M568 0C556.972 0 548 8.97188 548 20C548 31.0279 556.972 40 568 40C579.028 40 588 31.0279 588 20C588 8.97188 579.028 0 568 0ZM568 36.3636C558.977 36.3636 551.636 29.0229 551.636 20C551.636 10.9771 558.977 3.63636 568 3.63636C577.023 3.63636 584.364 10.9771 584.364 20C584.364 29.0229 577.023 36.3636 568 36.3636Z" fill="#0072B6"/>
<path d="M573.656 15.4086L569.818 19.2469V9.09089C569.818 8.08664 569.004 7.27271 567.999 7.27271C566.995 7.27271 566.181 8.08664 566.181 9.09089V19.2469L562.343 15.4086C561.633 14.6986 560.482 14.6986 559.772 15.4086C559.062 16.1188 559.062 17.2698 559.772 17.9799L566.714 24.9218C567.069 25.2769 567.534 25.4545 567.999 25.4545C568.465 25.4545 568.93 25.2769 569.285 24.922L576.227 17.9801C576.937 17.2702 576.938 16.1189 576.228 15.4086C575.517 14.6986 574.366 14.6986 573.656 15.4086Z" fill="#0072B6"/>
<path d="M571.637 29.0909H564.364C563.36 29.0909 562.546 29.9049 562.546 30.9091C562.546 31.9131 563.36 32.7273 564.364 32.7273H571.637C572.641 32.7273 573.455 31.9131 573.455 30.9091C573.455 29.9049 572.641 29.0909 571.637 29.0909Z" fill="#0072B6"/>
</g>
<g clip-path="url(#clip12_406_71)">
<path d="M748.17 0H732.83C731.267 0 730 1.26692 730 2.82979V18.1701C730 19.733 731.267 20.9999 732.83 20.9999H740.396L740.408 13.4957H738.459C738.205 13.4957 738 13.2908 737.999 13.0374L737.989 10.6185C737.989 10.3638 738.195 10.1567 738.45 10.1567H740.396V7.81944C740.396 5.10703 742.052 3.63011 744.472 3.63011H746.457C746.711 3.63011 746.917 3.83605 746.917 4.09014V6.12979C746.917 6.38377 746.712 6.58966 746.458 6.58982L745.239 6.59038C743.923 6.59038 743.668 7.21567 743.668 8.13332V10.1568H746.56C746.835 10.1568 747.049 10.3974 747.017 10.671L746.73 13.0899C746.703 13.3214 746.506 13.4958 746.273 13.4958H743.681L743.668 21H748.17C749.733 21 751 19.7331 751 18.1703V2.82979C751 1.26692 749.733 0 748.17 0Z" fill="white"/>
</g>
<g clip-path="url(#clip13_406_71)">
<path d="M716.631 0.705139H698.369C696.508 0.705139 695 2.21338 695 4.07394V22.3362C695 24.1968 696.508 25.705 698.369 25.705H707.376L707.391 16.7714H705.07C704.768 16.7714 704.524 16.5275 704.522 16.2259L704.511 13.3462C704.51 13.043 704.756 12.7965 705.059 12.7965H707.376V10.014C707.376 6.78494 709.348 5.02669 712.228 5.02669H714.592C714.894 5.02669 715.14 5.27187 715.14 5.57435V8.0025C715.14 8.30486 714.895 8.54998 714.592 8.55016L713.142 8.55083C711.575 8.55083 711.272 9.29523 711.272 10.3877V12.7966H714.714C715.042 12.7966 715.296 13.0829 715.258 13.4087L714.917 16.2883C714.884 16.5639 714.65 16.7715 714.373 16.7715H711.287L711.272 25.7051H716.631C718.492 25.7051 720 24.1969 720 22.3364V4.07394C720 2.21338 718.491 0.705139 716.631 0.705139Z" fill="#475993"/>
</g>
<g clip-path="url(#clip14_406_71)">
<path d="M646.552 0.705139H636.448C632.341 0.705139 629 4.04613 629 8.15277V18.2575C629 22.3641 632.341 25.7051 636.448 25.7051H646.552C650.659 25.7051 654 22.3641 654 18.2575V8.15277C654 4.04613 650.659 0.705139 646.552 0.705139ZM651.485 18.2575C651.485 20.9817 649.277 23.1901 646.552 23.1901H636.448C633.723 23.1901 631.515 20.9817 631.515 18.2575V8.15277C631.515 5.42853 633.723 3.22014 636.448 3.22014H646.552C649.277 3.22014 651.485 5.42853 651.485 8.15277V18.2575Z" fill="url(#paint0_linear_406_71)"/>
<path d="M641.5 6.73926C637.935 6.73926 635.034 9.63985 635.034 13.2051C635.034 16.7704 637.935 19.671 641.5 19.671C645.065 19.671 647.966 16.7704 647.966 13.2051C647.966 9.6398 645.065 6.73926 641.5 6.73926ZM641.5 17.156C639.318 17.156 637.549 15.3872 637.549 13.2051C637.549 11.0231 639.318 9.25426 641.5 9.25426C643.682 9.25426 645.451 11.0231 645.451 13.2051C645.451 15.3871 643.682 17.156 641.5 17.156Z" fill="url(#paint1_linear_406_71)"/>
<path d="M647.978 8.33718C648.834 8.33718 649.528 7.64353 649.528 6.78787C649.528 5.93221 648.834 5.23856 647.978 5.23856C647.123 5.23856 646.429 5.93221 646.429 6.78787C646.429 7.64353 647.123 8.33718 647.978 8.33718Z" fill="url(#paint2_linear_406_71)"/>
</g>
<g clip-path="url(#clip15_406_71)">
<path d="M666.696 0.0012207H682.305C683.788 0.0012207 685 1.21389 685 2.69677V18.3052C685 19.7877 683.788 20.9995 682.305 20.9995H666.696C665.214 20.9995 664 19.7876 664 18.3052V2.69677C664 1.21389 665.214 0.0012207 666.696 0.0012207ZM679.298 2.33341C678.778 2.33341 678.353 2.75977 678.353 3.28017V5.54214C678.353 6.06271 678.778 6.48813 679.298 6.48813H681.671C682.191 6.48813 682.617 6.06276 682.617 5.54214V3.28013C682.617 2.75977 682.191 2.33337 681.671 2.33337C681.671 2.33341 679.298 2.33341 679.298 2.33341ZM682.626 8.8811H680.778C680.953 9.45335 681.048 10.0568 681.048 10.6842C681.048 14.176 678.125 17.008 674.52 17.008C670.916 17.008 667.992 14.176 667.992 10.6842C667.992 10.0568 668.088 9.45335 668.262 8.8811H666.334V17.7523C666.334 18.2117 666.71 18.5855 667.169 18.5855H681.792C682.252 18.5855 682.626 18.2117 682.626 17.7523V8.8811ZM674.52 6.36881C672.192 6.36881 670.303 8.19778 670.303 10.456C670.303 12.7119 672.192 14.5422 674.52 14.5422C676.849 14.5422 678.738 12.7119 678.738 10.456C678.738 8.1977 676.849 6.36881 674.52 6.36881Z" fill="white"/>
</g>
<path fill-rule="evenodd" clip-rule="evenodd" d="M606.332 13.6089L606.331 7.70853L612.005 10.6689L606.332 13.6089ZM618.79 6.68609C618.79 6.68609 618.585 5.23906 617.955 4.60184C617.157 3.76513 616.261 3.76119 615.851 3.71263C612.913 3.5 608.505 3.5 608.505 3.5H608.495C608.495 3.5 604.087 3.5 601.149 3.71263C600.738 3.76119 599.843 3.76513 599.044 4.60184C598.415 5.23906 598.21 6.68609 598.21 6.68609C598.21 6.68609 598 8.38578 598 10.0848V11.6782C598 13.3779 598.21 15.0769 598.21 15.0769C598.21 15.0769 598.415 16.5239 599.044 17.1612C599.843 17.9979 600.893 17.9716 601.36 18.0589C603.04 18.2203 608.5 18.2702 608.5 18.2702C608.5 18.2702 612.913 18.2637 615.851 18.051C616.261 18.0018 617.157 17.9979 617.955 17.1612C618.585 16.5239 618.79 15.0769 618.79 15.0769C618.79 15.0769 619 13.3779 619 11.6782V10.0848C619 8.38578 618.79 6.68609 618.79 6.68609Z" fill="white"/>
<g clip-path="url(#clip16_406_71)">
<path d="M782 5.25V3.98895C782 3.87874 781.979 3.76959 781.936 3.66774C781.894 3.56589 781.833 3.47335 781.755 3.39542C781.677 3.31749 781.584 3.25569 781.482 3.21358C781.38 3.17147 781.271 3.14986 781.161 3.15H761.841C761.731 3.14986 761.621 3.17145 761.52 3.21354C761.418 3.25563 761.325 3.31739 761.247 3.39529C761.169 3.47319 761.107 3.56572 761.064 3.66758C761.022 3.76944 761 3.87864 761 3.98895V5.25H763.1V7.35H761V9.45H763.1V11.55H761V13.65H763.1V15.75H761V17.009C761 17.1194 761.022 17.2289 761.064 17.331C761.106 17.4331 761.168 17.5258 761.246 17.604C761.324 17.6821 761.417 17.744 761.519 17.7863C761.621 17.8285 761.731 17.8501 761.841 17.85H781.161C781.271 17.8499 781.381 17.828 781.482 17.7857C781.584 17.7433 781.677 17.6813 781.755 17.6032C781.833 17.5251 781.894 17.4325 781.936 17.3305C781.979 17.2285 782 17.1193 782 17.009V15.75H779.9V13.65H782V11.55H779.9V9.45H782V7.35H779.9V5.25H782V5.25ZM769.4 13.65V7.35L774.65 10.5L769.4 13.65Z" fill="white"/>
</g>
<path d="M811.633 6.09442H810.165L809.908 4.10658C809.752 2.90548 808.722 2 807.511 2H804.314C803.103 2 802.073 2.90548 801.917 4.10619L801.66 6.09442H798.548V5.13397C798.548 4.70983 798.204 4.36631 797.78 4.36631H795.32C794.896 4.36631 794.552 4.70987 794.552 5.13397V6.09442H793.367C792.612 6.09442 792 6.70661 792 7.46164V18.0273C792 18.7824 792.612 19.3946 793.367 19.3946H811.633C812.388 19.3946 813 18.7824 813 18.0273V7.46164C813 6.70656 812.388 6.09442 811.633 6.09442ZM802.412 18.472C799.334 18.472 796.838 15.9761 796.838 12.8975C796.838 10.1341 798.852 7.84649 801.49 7.40593C801.79 7.3557 802.097 7.32327 802.412 7.32327C803.765 7.32327 805.004 7.80551 805.969 8.6063C807.202 9.62862 807.987 11.1715 807.987 12.8975C807.987 15.9761 805.491 18.472 802.412 18.472ZM803.777 6.09442L804 4.37586C804.02 4.21856 804.156 4.10003 804.314 4.10003H807.511C807.669 4.10003 807.805 4.21856 807.825 4.37621L808.048 6.09437H803.777V6.09442ZM810.036 10.2945C809.353 10.2945 808.8 9.74107 808.8 9.0585C808.8 8.8985 808.833 8.74676 808.888 8.6063C809.069 8.14799 809.513 7.82261 810.036 7.82261C810.162 7.82261 810.282 7.84719 810.398 7.88231C810.903 8.03788 811.272 8.50236 811.272 9.0585C811.272 9.74102 810.719 10.2945 810.036 10.2945Z" fill="white"/>
<path d="M802.412 8.79087C800.148 8.79087 798.305 10.6333 798.305 12.8975C798.305 15.162 800.148 17.0043 802.412 17.0043C804.677 17.0043 806.519 15.162 806.519 12.8975C806.519 10.6332 804.677 8.79087 802.412 8.79087ZM802.412 15.6043C800.919 15.6043 799.705 14.3902 799.705 12.8975C799.705 11.405 800.919 10.1909 802.412 10.1909C803.905 10.1909 805.119 11.405 805.119 12.8975C805.119 14.3902 803.905 15.6043 802.412 15.6043Z" fill="white"/>
<defs>
<linearGradient id="paint0_linear_406_71" x1="641.5" y1="25.6323" x2="641.5" y2="0.899309" gradientUnits="userSpaceOnUse">
<stop stop-color="#E09B3D"/>
<stop offset="0.3" stop-color="#C74C4D"/>
<stop offset="0.6" stop-color="#C21975"/>
<stop offset="1" stop-color="#7024C4"/>
</linearGradient>
<linearGradient id="paint1_linear_406_71" x1="641.5" y1="25.6323" x2="641.5" y2="0.899317" gradientUnits="userSpaceOnUse">
<stop stop-color="#E09B3D"/>
<stop offset="0.3" stop-color="#C74C4D"/>
<stop offset="0.6" stop-color="#C21975"/>
<stop offset="1" stop-color="#7024C4"/>
</linearGradient>
<linearGradient id="paint2_linear_406_71" x1="647.978" y1="25.6323" x2="647.978" y2="0.899299" gradientUnits="userSpaceOnUse">
<stop stop-color="#E09B3D"/>
<stop offset="0.3" stop-color="#C74C4D"/>
<stop offset="0.6" stop-color="#C21975"/>
<stop offset="1" stop-color="#7024C4"/>
</linearGradient>
<clipPath id="clip0_406_71">
<rect width="25" height="25" fill="white" transform="translate(35)"/>
</clipPath>
<clipPath id="clip1_406_71">
<rect width="14" height="14" fill="white" transform="translate(70)"/>
</clipPath>
<clipPath id="clip2_406_71">
<rect width="14" height="14" fill="white" transform="translate(94)"/>
</clipPath>
<clipPath id="clip3_406_71">
<rect width="40" height="40" fill="white" transform="translate(398)"/>
</clipPath>
<clipPath id="clip4_406_71">
<rect width="25" height="25" fill="white" transform="translate(186)"/>
</clipPath>
<clipPath id="clip5_406_71">
<rect width="21" height="20" fill="white" transform="translate(336)"/>
</clipPath>
<clipPath id="clip6_406_71">
<rect width="40" height="40" fill="white" transform="translate(448)"/>
</clipPath>
<clipPath id="clip7_406_71">
<rect width="21" height="20" fill="white" transform="translate(367)"/>
</clipPath>
<clipPath id="clip8_406_71">
<rect width="40" height="40" fill="white" transform="translate(498)"/>
</clipPath>
<clipPath id="clip9_406_71">
<rect width="25" height="25" fill="white" transform="translate(221)"/>
</clipPath>
<clipPath id="clip10_406_71">
<rect width="25" height="25" fill="white"/>
</clipPath>
<clipPath id="clip11_406_71">
<rect width="40" height="40" fill="white" transform="translate(548)"/>
</clipPath>
<clipPath id="clip12_406_71">
<rect width="21" height="21" fill="white" transform="translate(730)"/>
</clipPath>
<clipPath id="clip13_406_71">
<rect width="25" height="26" fill="white" transform="translate(695)"/>
</clipPath>
<clipPath id="clip14_406_71">
<rect width="25" height="26" fill="white" transform="translate(629)"/>
</clipPath>
<clipPath id="clip15_406_71">
<rect width="21" height="21" fill="white" transform="translate(664)"/>
</clipPath>
<clipPath id="clip16_406_71">
<rect width="21" height="21" fill="white" transform="translate(761)"/>
</clipPath>
</defs>
</svg>
