<svg xmlns="http://www.w3.org/2000/svg" width="813" height="40" fill="none">
  <g fill="#0072B6" clip-path="url(#a)">
    <path d="M60 0H49.224v10.776H60V0ZM45.776 0H35v10.776h10.776V0ZM45.776 14.224H35V25h10.776V14.224ZM60 14.224H49.224V25H60V14.224Z"/>
  </g>
  <g clip-path="url(#b)">
    <path fill="#000" d="M74.083 5.833 77 8.75l2.917-2.917"/>
  </g>
  <g clip-path="url(#c)">
    <path fill="#0072B6" d="M98.083 5.833 101 8.75l2.917-2.917"/>
  </g>
  <g fill="#000" clip-path="url(#d)">
    <path d="M437.696 11.715 426.285.304a1.036 1.036 0 0 0-.734-.304h-20.505C401.161 0 398 3.161 398 7.046v25.908c0 3.885 3.161 7.046 7.046 7.046h25.908c3.885 0 7.046-3.16 7.046-7.046V12.448c0-.275-.11-.539-.304-.733Zm-11.28-8.345 8.214 8.214h-8.214V3.37Zm4.538 34.555h-25.908a4.977 4.977 0 0 1-4.971-4.971V7.046a4.977 4.977 0 0 1 4.971-4.97h19.295V12.62c0 .573.465 1.038 1.037 1.038h10.547v19.295a4.977 4.977 0 0 1-4.971 4.97Z"/>
    <path d="M415.955 9.061a5.336 5.336 0 0 0-3.798-1.573 5.338 5.338 0 0 0-3.799 1.573 5.338 5.338 0 0 0-1.573 3.799c0 1.434.559 2.783 1.573 3.798L419 27.299a3.533 3.533 0 0 0 4.99 0 3.532 3.532 0 0 0 0-4.99l-10.536-10.536a1.038 1.038 0 0 0-1.468 1.468l10.536 10.536a1.454 1.454 0 0 1-2.055 2.055l-10.641-10.641a3.274 3.274 0 0 1-.966-2.331c0-.88.343-1.708.966-2.331a3.3 3.3 0 0 1 4.662 0l11.15 11.15c2 2 2 5.255 0 7.255a5.098 5.098 0 0 1-3.628 1.503 5.098 5.098 0 0 1-3.628-1.503l-8.572-8.573a1.038 1.038 0 0 0-1.468 1.468l8.573 8.572a7.157 7.157 0 0 0 5.095 2.11c1.925 0 3.734-.749 5.095-2.11a7.158 7.158 0 0 0 2.11-5.095 7.157 7.157 0 0 0-2.11-5.095l-11.15-11.15Z"/>
  </g>
  <path fill="#000" d="m131.41 12 4.3-4.29a1.005 1.005 0 0 0-1.42-1.42l-4.29 4.3-4.29-4.3a1.004 1.004 0 0 0-1.42 1.42l4.3 4.29-4.3 4.29a1 1 0 0 0 .325 1.639 1.002 1.002 0 0 0 1.095-.219l4.29-4.3 4.29 4.3a1.009 1.009 0 0 0 .71.296 1.002 1.002 0 0 0 .929-.621.996.996 0 0 0-.219-1.095l-4.3-4.29Z"/>
  <path fill="#0072B6" d="m165.41 12 4.3-4.29a1.005 1.005 0 0 0-1.42-1.42l-4.29 4.3-4.29-4.3a1.004 1.004 0 0 0-1.42 1.42l4.3 4.29-4.3 4.29a1 1 0 0 0 .325 1.639 1.002 1.002 0 0 0 1.095-.219l4.29-4.3 4.29 4.3a1.009 1.009 0 0 0 .71.296 1.002 1.002 0 0 0 .929-.621.996.996 0 0 0-.219-1.095l-4.3-4.29Z"/>
  <path fill="#000" d="M285.02 1.413a.982.982 0 0 0-.23.028L271 4.739l-13.79-3.298a.981.981 0 0 0-1.21.955V24.25c0 .455.312.85.753.955.151.036 13.943 3.336 14.033 3.356a1 1 0 0 0 .442-.002l14.019-3.354a.982.982 0 0 0 .753-.954V2.395a.983.983 0 0 0-.98-.983Zm-.984 22.064-13.035 3.118H271V6.757l.457-.109 12.579-3.009v19.837Z"/>
  <path fill="#000" d="m273.257 15.34 5.115-1.254a.74.74 0 0 0 .565-.72V8.761a.741.741 0 0 0-.918-.72l-5.114 1.253a.74.74 0 0 0-.565.72v4.606c0 .48.45.834.917.72ZM272.37 18.475a.98.98 0 0 0 1.191.714l8.323-2.065a.981.981 0 1 0-.478-1.905l-8.323 2.065a.981.981 0 0 0-.713 1.191ZM281.406 18.798l-8.323 2.065a.981.981 0 1 0 .478 1.905l8.323-2.066a.981.981 0 1 0-.478-1.904Z"/>
  <g clip-path="url(#e)">
    <path fill="#000" d="m210.685 23.2-7.173-7.179a9.69 9.69 0 0 0 2.265-6.23c0-5.4-4.432-9.791-9.884-9.791C190.442 0 186 4.396 186 9.796c0 5.4 4.432 9.791 9.883 9.791a9.91 9.91 0 0 0 6.138-2.121l7.199 7.198c.42.42 1.045.42 1.465 0a1.01 1.01 0 0 0 0-1.465ZM188.101 9.795c0-4.242 3.494-7.69 7.782-7.69s7.783 3.448 7.783 7.69c0 4.242-3.495 7.69-7.783 7.69s-7.782-3.453-7.782-7.69Z"/>
  </g>
  <g clip-path="url(#f)">
    <path fill="#000" d="m356.163 18.567-5.739-5.742a7.748 7.748 0 0 0 1.812-4.984c0-4.32-3.545-7.833-7.906-7.833-4.362 0-7.915 3.517-7.915 7.837s3.545 7.833 7.906 7.833a7.93 7.93 0 0 0 4.911-1.697l5.758 5.759a.808.808 0 0 0 1.173 0 .808.808 0 0 0 0-1.172ZM338.095 7.845c0-3.394 2.796-6.152 6.226-6.152 3.431 0 6.226 2.758 6.226 6.152s-2.795 6.152-6.226 6.152c-3.43 0-6.226-2.762-6.226-6.152Z"/>
  </g>
  <g fill="#0072B0" clip-path="url(#g)">
    <path d="M487.696 11.715 476.285.304a1.036 1.036 0 0 0-.734-.304h-20.505C451.161 0 448 3.161 448 7.046v25.908c0 3.885 3.161 7.046 7.046 7.046h25.908c3.885 0 7.046-3.16 7.046-7.046V12.448c0-.275-.11-.539-.304-.733Zm-11.28-8.345 8.214 8.214h-8.214V3.37Zm4.538 34.555h-25.908a4.977 4.977 0 0 1-4.971-4.971V7.046a4.977 4.977 0 0 1 4.971-4.97h19.295V12.62c0 .573.465 1.038 1.037 1.038h10.547v19.295a4.977 4.977 0 0 1-4.971 4.97Z"/>
    <path d="M465.955 9.061a5.336 5.336 0 0 0-3.798-1.573 5.338 5.338 0 0 0-3.799 1.573 5.338 5.338 0 0 0-1.573 3.799c0 1.434.559 2.783 1.573 3.798L469 27.299a3.533 3.533 0 0 0 4.99 0 3.532 3.532 0 0 0 0-4.99l-10.536-10.536a1.038 1.038 0 0 0-1.468 1.468l10.536 10.536a1.454 1.454 0 0 1-2.055 2.055l-10.641-10.641a3.274 3.274 0 0 1-.966-2.331c0-.88.343-1.708.966-2.331a3.3 3.3 0 0 1 4.662 0l11.15 11.15c2 2 2 5.255 0 7.255a5.098 5.098 0 0 1-3.628 1.503 5.098 5.098 0 0 1-3.628-1.503l-8.572-8.573a1.038 1.038 0 0 0-1.468 1.468l8.573 8.572a7.157 7.157 0 0 0 5.095 2.11c1.925 0 3.734-.749 5.095-2.11a7.158 7.158 0 0 0 2.11-5.095 7.157 7.157 0 0 0-2.11-5.095l-11.15-11.15Z"/>
  </g>
  <path fill="#0072B6" d="M325.02 1.413a.982.982 0 0 0-.23.028L311 4.739l-13.79-3.298a.981.981 0 0 0-1.21.955V24.25c0 .455.312.85.753.955.151.036 13.943 3.336 14.033 3.356a1 1 0 0 0 .442-.002l14.019-3.354a.982.982 0 0 0 .753-.954V2.395a.983.983 0 0 0-.98-.983Zm-.984 22.064-13.035 3.118H311V6.757l.457-.109 12.579-3.009v19.837Z"/>
  <path fill="#0072B6" d="m313.257 15.34 5.115-1.254a.74.74 0 0 0 .565-.72V8.761a.741.741 0 0 0-.918-.72l-5.114 1.253a.74.74 0 0 0-.565.72v4.606c0 .48.45.834.917.72ZM312.37 18.475a.98.98 0 0 0 1.191.714l8.323-2.065a.981.981 0 1 0-.478-1.905l-8.323 2.065a.981.981 0 0 0-.713 1.191ZM321.406 18.798l-8.323 2.065a.981.981 0 1 0 .478 1.905l8.323-2.066a.981.981 0 1 0-.478-1.904Z"/>
  <g clip-path="url(#h)">
    <path fill="#0072B6" d="m387.163 18.567-5.739-5.742a7.748 7.748 0 0 0 1.812-4.984c0-4.32-3.545-7.833-7.906-7.833-4.362 0-7.915 3.517-7.915 7.837s3.545 7.833 7.906 7.833a7.93 7.93 0 0 0 4.911-1.697l5.758 5.759a.808.808 0 0 0 1.173 0 .808.808 0 0 0 0-1.172ZM369.095 7.845c0-3.394 2.796-6.152 6.226-6.152 3.431 0 6.226 2.758 6.226 6.152s-2.795 6.152-6.226 6.152c-3.43 0-6.226-2.762-6.226-6.152Z"/>
  </g>
  <g fill="#000" clip-path="url(#i)">
    <path d="M518 0c-11.028 0-20 8.972-20 20s8.972 20 20 20 20-8.972 20-20-8.972-20-20-20Zm0 36.364c-9.023 0-16.364-7.341-16.364-16.364S508.977 3.636 518 3.636 534.364 10.977 534.364 20 527.023 36.364 518 36.364Z"/>
    <path d="m523.656 15.409-3.838 3.838V9.09a1.818 1.818 0 0 0-3.637 0v10.156l-3.838-3.838a1.818 1.818 0 1 0-2.571 2.57l6.942 6.943c.355.355.82.532 1.285.532.466 0 .931-.177 1.286-.532l6.942-6.942a1.819 1.819 0 1 0-2.571-2.571ZM521.637 29.09h-7.273a1.818 1.818 0 0 0 0 3.637h7.273a1.818 1.818 0 0 0 0-3.636Z"/>
  </g>
  <g clip-path="url(#j)">
    <path fill="#0072B6" d="m245.685 23.2-7.173-7.179a9.69 9.69 0 0 0 2.265-6.23c0-5.4-4.432-9.791-9.884-9.791C225.442 0 221 4.396 221 9.796c0 5.4 4.432 9.791 9.883 9.791a9.91 9.91 0 0 0 6.138-2.121l7.199 7.198c.42.42 1.045.42 1.465 0a1.01 1.01 0 0 0 0-1.465ZM223.101 9.795c0-4.242 3.494-7.69 7.782-7.69s7.783 3.448 7.783 7.69c0 4.242-3.495 7.69-7.783 7.69s-7.782-3.453-7.782-7.69Z"/>
  </g>
  <g fill="#000" clip-path="url(#k)">
    <path d="M25 0H14.224v10.776H25V0ZM10.776 0H0v10.776h10.776V0ZM10.776 14.224H0V25h10.776V14.224ZM25 14.224H14.224V25H25V14.224Z"/>
  </g>
  <g fill="#0072B6" clip-path="url(#l)">
    <path d="M568 0c-11.028 0-20 8.972-20 20s8.972 20 20 20 20-8.972 20-20-8.972-20-20-20Zm0 36.364c-9.023 0-16.364-7.341-16.364-16.364S558.977 3.636 568 3.636 584.364 10.977 584.364 20 577.023 36.364 568 36.364Z"/>
    <path d="m573.656 15.409-3.838 3.838V9.09a1.818 1.818 0 0 0-3.637 0v10.156l-3.838-3.838a1.818 1.818 0 1 0-2.571 2.57l6.942 6.943c.355.355.82.532 1.285.532.466 0 .931-.177 1.286-.532l6.942-6.942a1.819 1.819 0 1 0-2.571-2.571ZM571.637 29.09h-7.273a1.818 1.818 0 0 0 0 3.637h7.273a1.818 1.818 0 0 0 0-3.636Z"/>
  </g>
  <g clip-path="url(#m)">
    <path fill="#fff" d="M748.17 0h-15.34A2.83 2.83 0 0 0 730 2.83v15.34a2.83 2.83 0 0 0 2.83 2.83h7.566l.012-7.504h-1.949a.46.46 0 0 1-.46-.459l-.01-2.419c0-.254.206-.461.461-.461h1.946V7.819c0-2.712 1.656-4.189 4.076-4.189h1.985a.46.46 0 0 1 .46.46v2.04a.46.46 0 0 1-.459.46h-1.219c-1.316 0-1.571.626-1.571 1.543v2.024h2.892a.46.46 0 0 1 .457.514l-.287 2.419a.46.46 0 0 1-.457.406h-2.592L743.668 21h4.502a2.83 2.83 0 0 0 2.83-2.83V2.83A2.83 2.83 0 0 0 748.17 0Z"/>
  </g>
  <g clip-path="url(#n)">
    <path fill="#475993" d="M716.631.705h-18.262A3.369 3.369 0 0 0 695 4.074v18.262a3.369 3.369 0 0 0 3.369 3.369h9.007l.015-8.934h-2.321a.548.548 0 0 1-.548-.545l-.011-2.88a.548.548 0 0 1 .548-.55h2.317v-2.782c0-3.23 1.972-4.987 4.852-4.987h2.364c.302 0 .548.245.548.547v2.428a.548.548 0 0 1-.548.548h-1.45c-1.567 0-1.87.745-1.87 1.838v2.409h3.442c.328 0 .582.286.544.612l-.341 2.88a.548.548 0 0 1-.544.482h-3.086l-.015 8.934h5.359A3.369 3.369 0 0 0 720 22.336V4.074a3.37 3.37 0 0 0-3.369-3.369Z"/>
  </g>
  <g clip-path="url(#o)">
    <path fill="url(#p)" d="M646.552.705h-10.104C632.341.705 629 4.046 629 8.153v10.104c0 4.107 3.341 7.448 7.448 7.448h10.104c4.107 0 7.448-3.34 7.448-7.447V8.152c0-4.107-3.341-7.448-7.448-7.448Zm4.933 17.553a4.932 4.932 0 0 1-4.933 4.932h-10.104a4.932 4.932 0 0 1-4.933-4.933V8.154a4.932 4.932 0 0 1 4.933-4.933h10.104a4.932 4.932 0 0 1 4.933 4.933v10.104Z"/>
    <path fill="url(#q)" d="M641.5 6.74a6.473 6.473 0 0 0-6.466 6.465 6.474 6.474 0 0 0 6.466 6.466c3.565 0 6.466-2.9 6.466-6.466A6.473 6.473 0 0 0 641.5 6.74Zm0 10.416a3.95 3.95 0 1 1 0-7.902 3.95 3.95 0 0 1 0 7.902Z"/>
    <path fill="url(#r)" d="M647.978 8.337a1.55 1.55 0 1 0 0-3.1 1.55 1.55 0 0 0 0 3.1Z"/>
  </g>
  <g clip-path="url(#s)">
    <path fill="#fff" d="M666.696.001h15.609A2.703 2.703 0 0 1 685 2.697v15.608A2.702 2.702 0 0 1 682.305 21h-15.609A2.703 2.703 0 0 1 664 18.305V2.697A2.704 2.704 0 0 1 666.696 0Zm12.602 2.332a.949.949 0 0 0-.945.947v2.262c0 .52.425.946.945.946h2.373c.52 0 .946-.425.946-.946V3.28a.95.95 0 0 0-.946-.947h-2.373Zm3.328 6.548h-1.848c.175.572.27 1.176.27 1.803 0 3.492-2.923 6.324-6.528 6.324-3.604 0-6.528-2.832-6.528-6.324 0-.627.096-1.23.27-1.803h-1.928v8.871c0 .46.376.834.835.834h14.623c.46 0 .834-.374.834-.834v-8.87ZM674.52 6.37c-2.328 0-4.217 1.829-4.217 4.087 0 2.256 1.889 4.086 4.217 4.086 2.329 0 4.218-1.83 4.218-4.086 0-2.258-1.889-4.087-4.218-4.087Z"/>
  </g>
  <path fill="#fff" fill-rule="evenodd" d="m606.332 13.609-.001-5.9 5.674 2.96-5.673 2.94Zm12.458-6.923s-.205-1.447-.835-2.084c-.798-.837-1.694-.84-2.104-.89-2.938-.212-7.346-.212-7.346-.212h-.01s-4.408 0-7.346.213c-.411.048-1.306.052-2.105.889-.629.637-.834 2.084-.834 2.084s-.21 1.7-.21 3.399v1.593c0 1.7.21 3.399.21 3.399s.205 1.447.834 2.084c.799.837 1.849.81 2.316.898 1.68.161 7.14.211 7.14.211s4.413-.006 7.351-.219c.41-.05 1.306-.053 2.104-.89.63-.637.835-2.084.835-2.084s.21-1.7.21-3.399v-1.593c0-1.7-.21-3.399-.21-3.399Z" clip-rule="evenodd"/>
  <g clip-path="url(#t)">
    <path fill="#fff" d="M782 5.25V3.989a.833.833 0 0 0-.839-.839h-19.32a.835.835 0 0 0-.594.245.843.843 0 0 0-.247.594V5.25h2.1v2.1H761v2.1h2.1v2.1H761v2.1h2.1v2.1H761v1.259a.847.847 0 0 0 .246.595.842.842 0 0 0 .595.246h19.32a.836.836 0 0 0 .775-.52.826.826 0 0 0 .064-.321V15.75h-2.1v-2.1h2.1v-2.1h-2.1v-2.1h2.1v-2.1h-2.1v-2.1h2.1Zm-12.6 8.4v-6.3l5.25 3.15-5.25 3.15Z"/>
  </g>
  <path fill="#fff" d="M811.633 6.094h-1.468l-.257-1.987A2.423 2.423 0 0 0 807.511 2h-3.197a2.423 2.423 0 0 0-2.397 2.106l-.257 1.988h-3.112v-.96a.768.768 0 0 0-.768-.768h-2.46a.768.768 0 0 0-.768.768v.96h-1.185c-.755 0-1.367.613-1.367 1.368v10.565c0 .755.612 1.368 1.367 1.368h18.266c.755 0 1.367-.613 1.367-1.368V7.462c0-.755-.612-1.368-1.367-1.368Zm-9.221 12.378a5.572 5.572 0 0 1-.922-11.066c.3-.05.607-.083.922-.083a5.55 5.55 0 0 1 3.557 1.283 5.575 5.575 0 0 1-3.557 9.866Zm1.365-12.378L804 4.376a.317.317 0 0 1 .314-.276h3.197c.158 0 .294.119.314.276l.223 1.718h-4.271Zm6.259 4.2a1.236 1.236 0 1 1 0-2.471c.126 0 .246.024.362.06a1.232 1.232 0 0 1-.362 2.411Z"/>
  <path fill="#fff" d="M802.412 8.79a4.112 4.112 0 0 0-4.107 4.108 4.112 4.112 0 0 0 4.107 4.106 4.111 4.111 0 0 0 4.107-4.107 4.111 4.111 0 0 0-4.107-4.106Zm0 6.814a2.71 2.71 0 0 1-2.707-2.706 2.71 2.71 0 0 1 2.707-2.707 2.71 2.71 0 0 1 2.707 2.707 2.71 2.71 0 0 1-2.707 2.706Z"/>
  <defs>
    <clipPath id="a">
      <path fill="#fff" d="M35 0h25v25H35z"/>
    </clipPath>
    <clipPath id="b">
      <path fill="#fff" d="M70 0h14v14H70z"/>
    </clipPath>
    <clipPath id="c">
      <path fill="#fff" d="M94 0h14v14H94z"/>
    </clipPath>
    <clipPath id="d">
      <path fill="#fff" d="M398 0h40v40h-40z"/>
    </clipPath>
    <clipPath id="e">
      <path fill="#fff" d="M186 0h25v25h-25z"/>
    </clipPath>
    <clipPath id="f">
      <path fill="#fff" d="M336 0h21v20h-21z"/>
    </clipPath>
    <clipPath id="g">
      <path fill="#fff" d="M448 0h40v40h-40z"/>
    </clipPath>
    <clipPath id="h">
      <path fill="#fff" d="M367 0h21v20h-21z"/>
    </clipPath>
    <clipPath id="i">
      <path fill="#fff" d="M498 0h40v40h-40z"/>
    </clipPath>
    <clipPath id="j">
      <path fill="#fff" d="M221 0h25v25h-25z"/>
    </clipPath>
    <clipPath id="k">
      <path fill="#fff" d="M0 0h25v25H0z"/>
    </clipPath>
    <clipPath id="l">
      <path fill="#fff" d="M548 0h40v40h-40z"/>
    </clipPath>
    <clipPath id="m">
      <path fill="#fff" d="M730 0h21v21h-21z"/>
    </clipPath>
    <clipPath id="n">
      <path fill="#fff" d="M695 0h25v26h-25z"/>
    </clipPath>
    <clipPath id="o">
      <path fill="#fff" d="M629 0h25v26h-25z"/>
    </clipPath>
    <clipPath id="s">
      <path fill="#fff" d="M664 0h21v21h-21z"/>
    </clipPath>
    <clipPath id="t">
      <path fill="#fff" d="M761 0h21v21h-21z"/>
    </clipPath>
    <linearGradient id="p" x1="641.5" x2="641.5" y1="25.632" y2=".899" gradientUnits="userSpaceOnUse">
      <stop stop-color="#E09B3D"/>
      <stop offset=".3" stop-color="#C74C4D"/>
      <stop offset=".6" stop-color="#C21975"/>
      <stop offset="1" stop-color="#7024C4"/>
    </linearGradient>
    <linearGradient id="q" x1="641.5" x2="641.5" y1="25.632" y2=".899" gradientUnits="userSpaceOnUse">
      <stop stop-color="#E09B3D"/>
      <stop offset=".3" stop-color="#C74C4D"/>
      <stop offset=".6" stop-color="#C21975"/>
      <stop offset="1" stop-color="#7024C4"/>
    </linearGradient>
    <linearGradient id="r" x1="647.978" x2="647.978" y1="25.632" y2=".899" gradientUnits="userSpaceOnUse">
      <stop stop-color="#E09B3D"/>
      <stop offset=".3" stop-color="#C74C4D"/>
      <stop offset=".6" stop-color="#C21975"/>
      <stop offset="1" stop-color="#7024C4"/>
    </linearGradient>
  </defs>
</svg>
