<?xml version="1.0" standalone="no"?>
<!DOCTYPE svg PUBLIC "-//W3C//DTD SVG 20010904//EN"
 "http://www.w3.org/TR/2001/REC-SVG-20010904/DTD/svg10.dtd">
<svg version="1.0" xmlns="http://www.w3.org/2000/svg"
 width="260.000000pt" height="260.000000pt" viewBox="0 0 260.000000 260.000000"
 preserveAspectRatio="xMidYMid meet">
<metadata>
Created by potrace 1.14, written by Peter Selinger 2001-2017
</metadata>
<g transform="translate(0.000000,260.000000) scale(0.100000,-0.100000)"
fill="#000000" stroke="none">
<path d="M1295 2510 c3 -5 8 -10 11 -10 2 0 4 5 4 10 0 6 -5 10 -11 10 -5 0
-7 -4 -4 -10z"/>
<path d="M1288 2473 c6 -2 18 -2 25 0 6 3 1 5 -13 5 -14 0 -19 -2 -12 -5z"/>
<path d="M1117 2397 c-12 -4 -30 -16 -40 -25 -22 -20 -54 -78 -38 -67 15 9 41
-54 41 -99 0 -38 -18 -86 -32 -86 -5 0 6 -27 24 -60 30 -54 36 -60 66 -60 28
0 32 3 27 19 -49 154 -55 223 -26 287 18 40 63 84 85 84 6 0 0 -7 -12 -16 -26
-18 -52 -65 -63 -112 -8 -37 1 -106 26 -199 l17 -63 104 0 103 0 10 38 c40
142 44 172 32 228 -9 37 -23 65 -45 89 -19 19 -28 35 -22 35 16 0 60 -48 80
-87 27 -54 20 -130 -29 -282 -6 -19 -2 -21 30 -21 25 0 34 -4 29 -12 -4 -7 -3
-8 5 -4 6 4 9 12 5 17 -3 5 9 34 26 64 17 30 27 55 22 55 -13 0 -32 55 -32 93
0 16 10 50 22 74 l22 44 -36 36 -36 36 -172 1 c-94 0 -181 -3 -193 -7z m212
-82 c79 -40 58 -215 -26 -215 -90 0 -127 137 -54 202 36 32 42 33 80 13z"/>
<path d="M1274 2255 c-4 -9 -4 -18 -1 -22 4 -3 -5 -20 -19 -39 l-26 -33 26
-26 c29 -29 58 -32 77 -9 12 15 11 16 -9 10 -19 -6 -22 -4 -22 18 0 21 5 26
27 26 24 0 25 1 10 18 -8 9 -17 28 -19 42 -4 29 -35 39 -44 15z m36 -10 c0 -8
-7 -15 -15 -15 -16 0 -20 12 -8 23 11 12 23 8 23 -8z m-33 -97 c-3 -8 -6 -5
-6 6 -1 11 2 17 5 13 3 -3 4 -12 1 -19z"/>
<path d="M490 2343 c8 -3 19 -11 23 -17 6 -7 7 -6 4 4 -2 8 -12 16 -23 17 -13
2 -15 1 -4 -4z"/>
<path d="M1863 2313 c9 -2 23 -2 30 0 6 3 -1 5 -18 5 -16 0 -22 -2 -12 -5z"/>
<path d="M1915 2310 c-3 -5 -1 -10 4 -10 6 0 11 5 11 10 0 6 -2 10 -4 10 -3 0
-8 -4 -11 -10z"/>
<path d="M525 2290 c10 -11 20 -20 23 -20 3 0 -3 9 -13 20 -10 11 -20 20 -23
20 -3 0 3 -9 13 -20z"/>
<path d="M1819 2293 c-13 -16 -12 -17 4 -4 9 7 17 15 17 17 0 8 -8 3 -21 -13z"/>
<path d="M600 2275 c-7 -8 -19 -15 -26 -15 -8 0 -14 -4 -14 -10 0 -17 15 -11
40 15 13 14 21 25 18 25 -3 0 -11 -7 -18 -15z"/>
<path d="M1905 2270 c10 -11 20 -20 23 -20 3 0 -3 9 -13 20 -10 11 -20 20 -23
20 -3 0 3 -9 13 -20z"/>
<path d="M1944 2255 c-1 -14 2 -25 7 -25 5 0 9 11 9 25 0 33 -15 33 -16 0z"/>
<path d="M490 2266 c0 -2 8 -10 18 -17 15 -13 16 -12 3 4 -13 16 -21 21 -21
13z"/>
<path d="M623 2240 c-18 -16 -29 -31 -25 -33 4 -2 20 11 35 29 35 42 32 43
-10 4z"/>
<path d="M2040 2257 c0 -19 16 -31 24 -18 3 5 -1 14 -9 21 -12 10 -15 10 -15
-3z"/>
<path d="M2016 2248 c14 -22 12 -49 -3 -44 -7 3 -13 1 -13 -4 0 -6 5 -10 10
-10 14 0 12 -43 -2 -60 -11 -12 -10 -12 5 -1 9 7 17 25 17 40 0 15 5 32 11 38
11 11 -8 53 -24 53 -4 0 -5 -6 -1 -12z"/>
<path d="M520 2214 c0 -8 5 -12 10 -9 6 4 8 11 5 16 -9 14 -15 11 -15 -7z"/>
<path d="M2056 2204 c-5 -14 -4 -15 9 -4 17 14 19 20 6 20 -5 0 -12 -7 -15
-16z"/>
<path d="M1827 2158 c1 -43 7 -56 18 -39 3 6 2 11 -4 11 -6 0 -6 11 -1 29 6
20 4 31 -3 34 -8 3 -11 -9 -10 -35z"/>
<path d="M1953 2188 c-5 -7 -15 -26 -23 -43 -8 -16 -16 -32 -17 -34 -2 -3 -18
9 -36 25 l-32 29 33 -35 c17 -20 32 -41 32 -47 0 -6 11 -13 25 -15 13 -3 22
-1 19 3 -3 5 -12 9 -20 9 -8 0 -14 7 -14 15 0 8 7 15 15 15 8 0 15 -4 15 -10
0 -5 6 -10 13 -10 6 1 1 10 -12 21 -13 11 -21 22 -17 26 3 3 16 -2 28 -13 23
-19 23 -19 6 2 -21 24 -23 45 -6 62 7 7 9 12 6 12 -3 0 -10 -6 -15 -12z"/>
<path d="M479 2173 c-13 -16 -12 -17 4 -4 9 7 17 15 17 17 0 8 -8 3 -21 -13z"/>
<path d="M555 2180 c-3 -5 -1 -10 4 -10 6 0 11 5 11 10 0 6 -2 10 -4 10 -3 0
-8 -4 -11 -10z"/>
<path d="M610 2186 c0 -2 8 -10 18 -17 15 -13 16 -12 3 4 -13 16 -21 21 -21
13z"/>
<path d="M519 2153 c-13 -16 -12 -17 4 -4 9 7 17 15 17 17 0 8 -8 3 -21 -13z"/>
<path d="M595 2140 c10 -11 20 -20 23 -20 3 0 -3 9 -13 20 -10 11 -20 20 -23
20 -3 0 3 -9 13 -20z"/>
<path d="M2095 2150 c3 -5 8 -10 11 -10 2 0 4 5 4 10 0 6 -5 10 -11 10 -5 0
-7 -4 -4 -10z"/>
<path d="M2060 2141 c0 -5 7 -11 14 -14 10 -4 13 -1 9 9 -6 15 -23 19 -23 5z"/>
<path d="M2127 2139 c7 -7 15 -10 18 -7 3 3 -2 9 -12 12 -14 6 -15 5 -6 -5z"/>
<path d="M665 2120 c10 -11 20 -20 23 -20 3 0 -3 9 -13 20 -10 11 -20 20 -23
20 -3 0 3 -9 13 -20z"/>
<path d="M660 2050 c0 -6 7 -13 15 -16 8 -4 15 -12 15 -20 0 -8 3 -14 8 -14 9
1 52 36 52 43 0 7 -28 2 -36 -6 -11 -11 -21 -8 -38 9 -9 8 -16 10 -16 4z m70
-14 c0 -2 -8 -10 -17 -17 -16 -13 -17 -12 -4 4 13 16 21 21 21 13z"/>
<path d="M1874 2048 c3 -10 1 -18 -4 -18 -6 0 -10 5 -10 10 0 6 -6 10 -12 10
-7 0 0 -12 15 -25 26 -23 55 -26 42 -4 -4 5 3 9 14 9 11 0 21 -8 24 -20 4 -17
4 -16 3 2 -1 18 -7 23 -29 23 -16 1 -33 7 -39 15 -8 12 -9 12 -4 -2z"/>
<path d="M1987 2039 c7 -7 15 -10 18 -7 3 3 -2 9 -12 12 -14 6 -15 5 -6 -5z"/>
<path d="M2104 2028 l-19 -23 23 19 c21 18 27 26 19 26 -2 0 -12 -10 -23 -22z"/>
<path d="M2146 2033 c-6 -14 -5 -15 5 -6 7 7 10 15 7 18 -3 3 -9 -2 -12 -12z"/>
<path d="M743 2010 l-22 -27 21 -19 c12 -11 18 -13 13 -5 -5 9 -2 18 9 26 11
9 14 19 9 32 -8 19 -9 18 -30 -7z m17 -15 c-7 -8 -17 -15 -22 -15 -6 0 -5 7 2
15 7 8 17 15 22 15 6 0 5 -7 -2 -15z"/>
<path d="M2030 2025 c-7 -9 -8 -15 -2 -15 5 0 12 7 16 15 3 8 4 15 2 15 -2 0
-9 -7 -16 -15z"/>
<path d="M1813 1994 c-10 -22 -10 -24 3 -14 11 10 18 9 32 -1 16 -13 16 -13 2
5 -8 11 -14 22 -12 25 2 3 0 7 -5 8 -4 2 -13 -9 -20 -23z"/>
<path d="M1968 2008 c-4 -8 3 -14 19 -14 14 -1 22 3 20 10 -5 16 -34 19 -39 4z"/>
<path d="M1866 1987 c3 -10 9 -15 12 -12 3 3 0 11 -7 18 -10 9 -11 8 -5 -6z"/>
<path d="M795 1960 c10 -11 20 -20 23 -20 3 0 -3 9 -13 20 -10 11 -20 20 -23
20 -3 0 3 -9 13 -20z"/>
<path d="M1120 1965 c0 -9 5 -15 11 -13 6 2 11 8 11 13 0 5 -5 11 -11 13 -6 2
-11 -4 -11 -13z"/>
<path d="M1175 1971 c-6 -11 9 -23 19 -14 9 9 7 23 -3 23 -6 0 -12 -4 -16 -9z"/>
<path d="M1225 1971 c-7 -12 12 -24 25 -16 11 7 4 25 -10 25 -5 0 -11 -4 -15
-9z"/>
<path d="M1282 1969 c2 -6 8 -10 13 -10 5 0 11 4 13 10 2 6 -4 11 -13 11 -9 0
-15 -5 -13 -11z"/>
<path d="M1340 1965 c0 -9 5 -15 11 -13 6 2 11 8 11 13 0 5 -5 11 -11 13 -6 2
-11 -4 -11 -13z"/>
<path d="M1392 1969 c2 -6 8 -10 13 -10 5 0 11 4 13 10 2 6 -4 11 -13 11 -9 0
-15 -5 -13 -11z"/>
<path d="M1450 1965 c0 -9 5 -15 11 -13 6 2 11 8 11 13 0 5 -5 11 -11 13 -6 2
-11 -4 -11 -13z"/>
<path d="M1830 1945 c-15 -18 -54 -21 -44 -2 6 10 4 10 -7 0 -10 -10 -134 -13
-551 -13 -296 0 -538 -2 -538 -4 0 -2 15 -19 34 -38 42 -42 56 -90 56 -194 0
-60 -4 -85 -15 -94 -8 -7 -15 -18 -15 -24 0 -7 4 -6 9 2 8 14 21 -60 21 -125
l0 -33 230 0 230 0 2 248 3 247 50 0 50 0 3 -247 2 -248 231 0 230 0 -3 -52
-3 -53 -227 0 -228 1 1 -76 c0 -62 2 -71 11 -52 16 32 32 22 39 -24 4 -30 7
-35 13 -21 14 30 38 0 31 -37 -6 -30 -5 -30 10 -11 14 17 17 18 26 5 5 -8 7
-30 4 -48 -4 -23 -3 -32 4 -27 6 3 11 13 11 21 0 32 25 6 31 -32 4 -30 7 -35
13 -21 7 14 11 15 22 6 10 -8 12 -22 8 -47 -5 -25 -4 -33 5 -28 6 4 11 14 11
23 0 13 2 13 16 2 11 -9 14 -23 10 -47 -5 -34 -5 -34 15 -16 17 15 22 16 29 4
5 -8 6 -28 4 -45 -5 -29 -5 -29 10 -11 12 15 19 17 28 8 9 -9 7 -16 -7 -32
-10 -11 -21 -20 -26 -20 -4 0 -60 62 -125 137 l-118 137 -7 -34 c-8 -40 -2
-60 18 -60 10 0 12 6 8 21 -6 17 -3 20 12 17 15 -3 17 -12 15 -51 -2 -37 0
-47 12 -47 10 0 13 6 10 15 -4 10 0 15 15 15 19 0 21 -6 21 -50 0 -39 4 -50
16 -50 11 0 14 6 9 21 -6 17 -3 20 12 17 15 -3 17 -12 15 -51 -2 -37 0 -47 12
-47 10 0 13 6 10 15 -4 10 0 15 16 15 18 0 21 -5 18 -32 -2 -17 -8 -33 -14
-35 -7 -2 -70 60 -140 137 l-129 142 -6 -194 c-4 -106 -7 -201 -8 -210 -2 -28
-38 -42 -72 -28 l-29 12 0 359 0 359 -231 0 -231 0 4 -173 3 -173 35 -69 c19
-39 34 -76 34 -83 -1 -7 0 -11 3 -8 3 3 32 -17 65 -45 66 -54 90 -68 257 -146
l114 -54 96 42 c126 54 215 103 267 146 25 20 48 32 55 27 8 -4 9 -3 5 4 -4 7
6 31 21 54 77 115 83 159 83 613 0 349 1 372 20 402 10 17 28 37 39 43 32 17
25 30 -15 30 -31 0 -35 2 -24 15 7 8 10 15 7 15 -2 0 -10 -7 -17 -15z m-801
-54 c9 -6 10 -11 2 -15 -14 -9 -15 -175 -1 -196 5 -8 19 -15 31 -15 14 0 23
-7 25 -19 4 -27 -6 -45 -22 -39 -8 3 -14 0 -14 -7 0 -6 -4 -9 -9 -5 -13 7 -25
-95 -16 -134 4 -20 3 -31 -4 -31 -7 0 -11 25 -11 66 0 72 -12 106 -35 98 -8
-4 -22 -3 -31 0 -15 6 -15 9 5 30 11 12 18 25 15 29 -4 4 1 9 10 13 9 3 13 11
9 18 -4 6 1 4 11 -3 17 -14 18 -9 14 102 -1 64 -1 117 2 117 3 0 11 -4 19 -9z
m71 -61 c-20 -13 -50 -13 -50 0 0 6 15 10 33 10 24 0 28 -3 17 -10z m-110 -19
c0 -5 -9 -7 -20 -4 -11 3 -20 7 -20 9 0 2 9 4 20 4 11 0 20 -4 20 -9z m-20
-40 c17 -5 21 -9 12 -15 -7 -4 -9 -13 -5 -19 3 -7 -2 -5 -13 5 -10 9 -35 21
-54 26 l-35 10 35 0 c19 0 46 -3 60 -7z m167 -34 c-12 -5 -36 -10 -53 -11 -17
-2 -35 -6 -41 -9 -5 -3 -10 1 -10 9 0 21 86 45 109 30 16 -10 16 -11 -5 -19z
m333 -17 c0 -11 -7 -20 -15 -20 -11 0 -15 -12 -15 -46 0 -30 -4 -43 -11 -38
-6 3 -9 24 -7 45 2 27 0 39 -9 39 -7 0 -13 9 -13 20 0 16 7 20 35 20 28 0 35
-4 35 -20z m300 5 c0 -9 -7 -18 -15 -21 -10 -4 -15 -20 -15 -50 0 -24 -4 -44
-10 -44 -5 0 -10 20 -10 45 0 25 -4 45 -10 45 -5 0 -10 9 -10 20 0 16 7 20 35
20 25 0 35 -4 35 -15z m-781 -11 c10 -8 -49 -21 -104 -23 -42 -1 -57 1 -49 9
21 21 132 31 153 14z m192 -39 c18 -12 -12 -25 -41 -18 -31 7 -44 18 -36 31 6
10 52 2 77 -13z m457 -103 l-3 -67 -65 0 -65 0 -3 70 -3 70 71 -3 71 -4 -3
-66z m-168 -332 c0 -10 -6 -20 -12 -23 -21 -7 -38 4 -38 23 0 10 6 20 13 23
20 7 37 -4 37 -23z m100 0 c0 -10 -6 -20 -12 -23 -21 -7 -38 4 -38 23 0 10 6
20 13 23 20 7 37 -4 37 -23z m100 0 c0 -10 -6 -20 -12 -23 -21 -7 -38 4 -38
23 0 10 6 20 13 23 20 7 37 -4 37 -23z m100 0 c0 -10 -6 -20 -12 -23 -21 -7
-38 4 -38 23 0 10 6 20 13 23 20 7 37 -4 37 -23z m-712 -6 c11 -20 3 -66 -11
-57 -6 3 -7 1 -3 -6 4 -6 16 -9 26 -6 39 12 142 -62 133 -95 -6 -24 -22 -25
-69 -5 -36 15 -36 15 -30 -8 3 -12 6 -35 6 -51 0 -29 0 -29 22 -10 l22 19 -17
-25 c-9 -13 -17 -44 -17 -67 0 -32 -5 -46 -20 -55 -22 -14 -26 -48 -8 -66 17
-17 2 -28 -17 -12 -8 7 -15 23 -15 36 0 13 -6 24 -12 25 -7 0 -21 2 -30 4 -13
2 -18 -3 -18 -20 0 -21 -27 -61 -36 -52 -2 2 2 17 8 35 11 28 10 33 -15 56
-15 14 -21 26 -15 28 6 2 17 23 23 46 11 35 11 42 -1 42 -20 0 5 40 26 40 8 1
0 7 -18 15 -18 8 -35 21 -38 29 -8 21 21 60 61 82 35 19 48 54 20 54 -18 0
-19 12 -3 28 17 17 35 15 46 -4z m-148 -34 c0 -16 -2 -30 -4 -30 -2 0 -6 14
-8 30 -3 17 -1 30 4 30 4 0 8 -13 8 -30z m105 -12 c7 -7 1 -8 -15 -3 -40 12
-59 26 -25 19 17 -4 35 -11 40 -16z m545 -33 c0 6 4 4 9 -4 20 -31 -17 -61
-43 -35 -16 15 -11 48 5 38 5 -3 9 1 9 8 0 9 3 9 10 -2 5 -8 10 -10 10 -5z
m100 0 c0 6 4 4 9 -4 20 -31 -17 -61 -43 -35 -16 15 -11 48 5 38 5 -3 9 1 9 8
0 9 3 9 10 -2 5 -8 10 -10 10 -5z m100 0 c0 6 4 4 9 -4 20 -31 -17 -61 -43
-35 -16 15 -11 48 5 38 5 -3 9 1 9 8 0 9 3 9 10 -2 5 -8 10 -10 10 -5z m-90
-125 c0 -10 -6 -20 -12 -23 -21 -7 -38 4 -38 23 0 10 6 20 13 23 20 7 37 -4
37 -23z m100 0 c0 -10 -6 -20 -12 -23 -21 -7 -38 4 -38 23 0 10 6 20 13 23 20
7 37 -4 37 -23z"/>
<path d="M1140 1100 c30 -38 49 -53 34 -27 -21 36 -47 67 -56 67 -5 0 5 -18
22 -40z"/>
<path d="M977 1096 c-18 -14 -11 -26 25 -39 14 -5 15 -2 6 24 -5 16 -11 29
-11 29 -1 0 -10 -7 -20 -14z"/>
<path d="M1830 1581 c0 -6 4 -13 10 -16 6 -3 7 1 4 9 -7 18 -14 21 -14 7z"/>
<path d="M745 1548 c4 -11 2 -18 -4 -18 -6 0 -11 -4 -11 -10 0 -16 17 -11 24
7 4 9 2 21 -4 27 -8 8 -9 6 -5 -6z"/>
<path d="M1834 1534 c3 -9 6 -21 6 -27 0 -8 3 -8 10 -1 12 12 3 44 -12 44 -6
0 -7 -7 -4 -16z"/>
<path d="M713 1503 c3 -12 0 -24 -6 -26 -6 -2 -7 -9 -2 -17 6 -10 10 -8 17 9
5 14 4 29 -3 39 -9 15 -10 14 -6 -5z"/>
<path d="M1864 1484 c3 -9 6 -21 6 -27 0 -8 3 -8 10 -1 12 12 3 44 -12 44 -6
0 -7 -7 -4 -16z"/>
<path d="M702 1426 c7 -8 15 -12 17 -11 5 6 -10 25 -20 25 -5 0 -4 -6 3 -14z"/>
<path d="M670 1396 c0 -8 -6 -16 -13 -19 -16 -6 -14 -60 3 -65 8 -3 10 0 5 8
-4 7 -2 16 5 20 15 9 22 70 9 70 -5 0 -9 -6 -9 -14z m5 -36 c3 -5 2 -10 -4
-10 -5 0 -13 5 -16 10 -3 6 -2 10 4 10 5 0 13 -4 16 -10z"/>
<path d="M1904 1394 c3 -9 6 -20 6 -25 0 -4 7 -6 15 -3 8 4 15 1 15 -5 0 -6
-8 -11 -17 -12 -11 0 -13 -3 -5 -6 6 -2 12 -12 12 -20 0 -25 13 -6 16 23 2 15
-3 27 -12 31 -8 3 -14 11 -14 19 0 8 -5 14 -11 14 -6 0 -8 -7 -5 -16z"/>
<path d="M631 1233 c0 -25 1 -26 9 -8 12 27 12 35 0 35 -5 0 -10 -12 -9 -27z"/>
<path d="M1943 1225 c-1 -19 3 -38 8 -41 5 -3 7 -10 4 -15 -4 -5 -2 -9 3 -9
16 0 21 39 9 70 -15 40 -23 38 -24 -5z"/>
<path d="M611 1208 c-1 -9 4 -20 9 -23 6 -4 8 -11 5 -16 -4 -5 0 -9 7 -9 8 0
14 9 14 20 0 11 -6 20 -12 20 -7 0 -15 6 -17 13 -3 7 -6 6 -6 -5z"/>
<path d="M651 1134 c0 -11 3 -14 6 -6 3 7 2 16 -1 19 -3 4 -6 -2 -5 -13z"/>
<path d="M604 1128 c-4 -7 -4 -10 1 -6 4 4 14 3 22 -4 11 -8 12 -7 7 6 -7 19
-20 21 -30 4z"/>
<path d="M1931 1124 c0 -11 3 -14 6 -6 3 7 2 16 -1 19 -3 4 -6 -2 -5 -13z"/>
<path d="M1975 1130 c3 -5 8 -10 11 -10 2 0 4 5 4 10 0 6 -5 10 -11 10 -5 0
-7 -4 -4 -10z"/>
<path d="M1366 1098 c-10 -38 -7 -58 9 -58 8 0 12 6 9 14 -4 9 2 16 16 18 22
3 22 3 -3 26 l-24 23 -7 -23z"/>
<path d="M619 1091 c8 -5 11 -16 8 -24 -4 -11 -1 -14 9 -10 7 3 14 0 14 -6 0
-6 -8 -11 -17 -11 -14 0 -15 -2 -4 -9 7 -5 10 -14 7 -20 -4 -6 -1 -11 6 -11 8
0 12 11 12 28 -3 44 -15 72 -33 72 -13 0 -13 -2 -2 -9z"/>
<path d="M1950 1080 c0 -11 4 -20 8 -20 4 0 8 9 9 20 1 11 -2 20 -8 20 -5 0
-9 -9 -9 -20z"/>
<path d="M1937 1042 c1 -8 3 -20 3 -28 0 -8 5 -14 12 -14 6 0 8 3 5 7 -4 3 -2
12 4 20 9 10 8 13 -4 13 -8 0 -17 3 -20 8 -2 4 -2 1 0 -6z"/>
<path d="M655 940 c-11 -5 -14 -9 -7 -9 6 -1 12 -8 12 -16 0 -8 4 -15 9 -15 5
0 9 11 9 25 0 14 -1 25 -2 24 0 0 -10 -4 -21 -9z"/>
<path d="M1920 938 c0 -8 -5 -19 -12 -26 -14 -14 -20 -62 -7 -62 5 0 9 6 9 14
0 8 6 17 13 19 7 3 4 6 -6 6 -10 1 -15 6 -12 11 4 6 10 8 15 5 4 -3 10 4 13
15 3 11 1 23 -4 26 -5 3 -9 -1 -9 -8z"/>
<path d="M690 900 c0 -5 -8 -10 -17 -10 -17 -1 -17 -1 0 -11 9 -6 15 -14 12
-20 -4 -5 1 -9 10 -9 10 0 13 4 8 13 -4 6 -6 20 -5 30 2 9 1 17 -2 17 -3 0 -6
-4 -6 -10z"/>
<path d="M717 793 c3 -7 10 -13 15 -13 6 0 8 -7 4 -15 -4 -12 -2 -13 15 -2 16
10 17 13 4 15 -8 2 -15 9 -15 16 0 7 -6 13 -14 13 -8 0 -12 -6 -9 -14z"/>
<path d="M1755 790 c10 -11 20 -20 23 -20 3 0 -3 9 -13 20 -10 11 -20 20 -23
20 -3 0 3 -9 13 -20z"/>
<path d="M1843 785 c-10 -10 -9 -16 2 -25 9 -8 15 -8 15 -2 0 6 3 17 6 26 7
20 -7 20 -23 1z"/>
<path d="M819 773 c-13 -16 -12 -17 4 -4 9 7 17 15 17 17 0 8 -8 3 -21 -13z"/>
<path d="M859 763 c-13 -16 -12 -17 4 -4 9 7 17 15 17 17 0 8 -8 3 -21 -13z"/>
<path d="M757 754 c-4 -4 -2 -13 4 -21 9 -10 8 -17 -2 -30 -13 -16 -12 -17 3
-5 11 9 18 10 23 2 3 -5 1 -10 -5 -10 -6 0 -8 -5 -5 -11 4 -5 -1 -20 -12 -32
l-18 -22 23 19 c12 11 22 25 22 33 0 8 4 12 9 9 5 -3 14 1 21 10 10 11 10 18
2 26 -12 12 -17 0 -13 -25 1 -5 -3 -6 -8 -3 -5 4 -8 15 -6 26 2 12 0 18 -5 15
-5 -3 -13 2 -17 10 -5 9 -12 12 -16 9z"/>
<path d="M1750 737 c14 -16 24 -30 23 -33 -4 -5 7 -7 13 -2 2 3 -11 18 -29 34
l-32 29 25 -28z"/>
<path d="M1787 745 c6 -11 9 -30 7 -41 -2 -12 3 -27 11 -34 12 -10 13 -7 9 17
l-5 28 28 -25 28 -25 -24 27 c-19 22 -22 30 -12 42 7 9 8 17 2 20 -5 3 -11 0
-14 -6 -3 -10 -8 -9 -22 2 -17 14 -17 13 -8 -5z"/>
<path d="M820 670 c0 -5 5 -10 10 -10 6 0 11 -10 11 -22 1 -17 2 -19 6 -5 2 9
9 17 15 17 5 0 8 -7 4 -15 -3 -8 -1 -15 4 -15 6 0 10 -8 10 -17 0 -15 2 -16
10 -3 5 8 5 17 1 20 -4 3 -10 13 -14 23 -3 9 -13 17 -22 17 -8 0 -15 5 -15 10
0 6 -4 10 -10 10 -5 0 -10 -4 -10 -10z"/>
<path d="M1742 665 c-18 -10 -20 -14 -8 -18 8 -3 20 1 27 9 16 20 9 23 -19 9z"/>
<path d="M719 653 c-13 -16 -12 -17 4 -4 9 7 17 15 17 17 0 8 -8 3 -21 -13z"/>
<path d="M1835 630 c10 -11 20 -20 23 -20 3 0 -3 9 -13 20 -10 11 -20 20 -23
20 -3 0 3 -9 13 -20z"/>
<path d="M1883 633 c16 -18 16 -21 1 -33 -14 -12 -13 -16 8 -32 41 -33 58 -40
52 -23 -4 9 -9 13 -12 11 -3 -3 -11 -1 -19 5 -10 9 -11 15 -2 26 10 11 8 12
-7 7 -17 -5 -17 -4 -3 8 15 12 14 15 -10 32 l-26 20 18 -21z"/>
<path d="M1703 626 c-16 -19 -4 -29 13 -11 8 7 14 16 14 19 0 10 -15 6 -27 -8z"/>
<path d="M673 601 c0 -11 6 -19 12 -18 5 1 9 -3 8 -9 -4 -22 32 -3 44 22 10
22 10 24 -3 13 -11 -9 -18 -9 -26 -1 -18 18 -37 14 -35 -7z m43 -19 c-4 -3
-14 2 -24 12 -16 18 -16 18 6 6 13 -6 21 -14 18 -18z"/>
<path d="M1630 583 c0 -7 -10 -13 -22 -14 -13 0 -17 -3 -10 -6 26 -10 10 -20
-30 -18 -24 2 -37 1 -30 -2 9 -3 10 -9 3 -17 -6 -8 -6 -17 0 -26 8 -12 9 -12
7 4 -2 14 4 19 25 22 38 4 78 37 66 55 -6 10 -9 10 -9 2z"/>
<path d="M944 569 c-5 -9 17 -13 45 -9 9 1 12 -4 8 -14 -4 -10 -1 -16 7 -16 8
0 16 -4 18 -8 2 -4 11 1 21 11 19 18 18 19 -3 12 -14 -4 -26 -2 -33 8 -15 18
-55 28 -63 16z"/>
<path d="M650 539 c0 -5 5 -7 10 -4 6 3 10 8 10 11 0 2 -4 4 -10 4 -5 0 -10
-5 -10 -11z"/>
<path d="M1070 531 c0 -7 -5 -9 -12 -5 -7 5 -8 3 -3 -5 5 -9 10 -10 18 -2 6 6
8 14 4 18 -4 3 -7 1 -7 -6z"/>
<path d="M1491 504 c0 -11 3 -14 6 -6 3 7 2 16 -1 19 -3 4 -6 -2 -5 -13z"/>
<path d="M1090 502 c0 -4 9 -8 20 -9 11 -1 20 2 20 5 0 4 -9 8 -20 9 -11 1
-20 -2 -20 -5z"/>
<path d="M1143 503 c4 -7 0 -16 -10 -21 -13 -8 -9 -9 17 -7 19 1 36 8 38 15 3
8 0 10 -7 6 -7 -4 -19 -2 -28 6 -11 8 -14 8 -10 1z"/>
<path d="M1435 499 c-4 -6 -13 -8 -21 -5 -7 3 -11 0 -8 -7 2 -7 15 -12 28 -12
17 0 22 5 18 18 -5 20 -8 21 -17 6z"/>
<path d="M1274 479 c-3 -6 0 -17 8 -25 13 -13 16 -13 27 0 7 8 10 20 6 26 -8
13 -32 13 -41 -1z"/>
<path d="M1245 470 c-3 -5 -1 -10 4 -10 6 0 11 5 11 10 0 6 -2 10 -4 10 -3 0
-8 -4 -11 -10z"/>
<path d="M1330 470 c0 -5 5 -10 10 -10 6 0 10 5 10 10 0 6 -4 10 -10 10 -5 0
-10 -4 -10 -10z"/>
<path d="M1280 421 c0 -5 8 -12 18 -14 16 -4 16 -5 0 -6 -10 0 -18 -6 -18 -13
0 -6 3 -8 7 -5 3 4 11 3 18 -3 8 -6 11 -1 10 18 0 17 -6 28 -17 30 -10 2 -18
-1 -18 -7z"/>
<path d="M1283 344 c-3 -8 -11 -13 -18 -11 -6 3 -12 -1 -12 -8 0 -10 6 -11 22
-3 15 7 29 7 42 0 15 -9 20 -8 20 3 0 8 -4 12 -9 9 -4 -3 -11 2 -14 10 -8 20
-23 20 -31 0z"/>
<path d="M1340 290 c0 -6 9 -19 20 -30 23 -23 25 -39 7 -64 -13 -17 -15 -16
-35 16 -12 20 -22 43 -22 52 0 9 -7 16 -15 16 -9 0 -15 -9 -15 -25 0 -14 -7
-28 -15 -31 -8 -4 -15 -12 -15 -19 0 -26 -20 -26 -32 0 -10 22 -8 30 12 58 19
26 20 29 3 14 -11 -9 -23 -14 -28 -10 -4 5 -5 3 -1 -4 3 -6 0 -15 -7 -20 -22
-13 -28 -41 -9 -39 10 0 16 -5 14 -14 -2 -8 0 -12 4 -7 4 4 16 0 26 -10 10 -9
19 -14 21 -12 1 2 7 13 13 24 16 29 46 25 62 -7 7 -16 18 -28 24 -28 6 0 5 7
-3 17 -8 9 -9 14 -3 10 6 -4 20 3 30 14 10 11 23 18 30 15 21 -8 4 23 -33 60
-18 18 -33 29 -33 24z m-43 -52 c-3 -7 -5 -2 -5 12 0 14 2 19 5 13 2 -7 2 -19
0 -25z"/>
<path d="M1272 160 c2 -8 13 -15 23 -15 10 0 20 7 22 15 4 13 3 13 -5 1 -9
-13 -13 -13 -28 0 -15 12 -17 12 -12 -1z"/>
<path d="M1250 146 c0 -4 11 -19 24 -33 24 -26 24 -26 35 -5 10 18 9 21 -4 16
-9 -4 -25 2 -35 11 -11 10 -20 15 -20 11z"/>
</g>
</svg>
