<svg width="40" height="40" viewBox="0 0 40 40" fill="none" xmlns="http://www.w3.org/2000/svg">
<g clip-path="url(#clip0_236_669)">
<path d="M39.696 11.7149L28.2851 0.30384C28.0906 0.109292 27.8267 0 27.5514 0H7.04642C3.16101 0 0 3.16101 0 7.04642V32.9538C0 36.8392 3.16101 40.0002 7.04642 40.0002H32.9538C36.8392 40.0002 40.0002 36.8392 40.0002 32.9538V12.4484C40 12.1733 39.8905 11.9094 39.696 11.7149ZM28.416 3.36956L36.6303 11.5838H28.416V3.36956ZM32.9536 37.9248H7.04642C4.30529 37.9248 2.07517 35.6947 2.07517 32.9536V7.04642C2.07517 4.30529 4.30529 2.07517 7.04642 2.07517H26.3409V12.6214C26.3409 13.1943 26.8055 13.659 27.3785 13.659H37.9247V32.9536C37.9248 35.6947 35.6947 37.9248 32.9536 37.9248Z" fill="#0072B0"/>
<path d="M17.955 9.06143C16.9404 8.04684 15.5916 7.4881 14.1567 7.4881C12.7219 7.4881 11.3731 8.04684 10.3585 9.06143C9.3439 10.076 8.78516 11.4249 8.78516 12.8597C8.78516 14.2945 9.3439 15.6434 10.3585 16.6579L21 27.2994C22.376 28.6753 24.6142 28.6749 25.9899 27.2994C27.3656 25.9236 27.3656 23.6853 25.9899 22.3095L15.4536 11.7735C15.0484 11.3683 14.3912 11.3683 13.9862 11.7735C13.5811 12.1787 13.5811 12.8356 13.9862 13.2408L24.5224 23.777C25.0889 24.3435 25.0889 25.2656 24.5224 25.8321C23.9559 26.3986 23.034 26.3986 22.4673 25.8321L11.8258 15.1908C11.2031 14.5681 10.8603 13.7402 10.8603 12.8599C10.8603 11.9793 11.2033 11.1515 11.8258 10.5289C13.1112 9.24352 15.2023 9.24352 16.4877 10.5289L27.6376 21.6788C29.6379 23.6791 29.6379 26.9339 27.6376 28.9341C26.6687 29.9031 25.3803 30.4367 24.01 30.4367C22.6397 30.4367 21.3514 29.9031 20.3824 28.9341L11.8097 20.3613C11.4045 19.9561 10.7474 19.9561 10.3424 20.3613C9.93722 20.7664 9.93722 21.4234 10.3424 21.8286L18.9151 30.4013C20.2761 31.7623 22.0855 32.5117 24.01 32.5117C25.9346 32.5117 27.7441 31.7623 29.1049 30.4013C30.4657 29.0403 31.2154 27.231 31.2154 25.3062C31.2154 23.3817 30.4659 21.5721 29.1049 20.2113L17.955 9.06143V9.06143Z" fill="#0072B0"/>
</g>
<defs>
<clipPath id="clip0_236_669">
<rect width="40" height="40" fill="white"/>
</clipPath>
</defs>
</svg>
