<svg width="40" height="40" viewBox="0 0 40 40" fill="none" xmlns="http://www.w3.org/2000/svg">
<g clip-path="url(#clip0_241_1313)">
<path d="M20 0C8.972 0 0 8.97188 0 20C0 31.0279 8.972 40 20 40C31.028 40 40 31.0279 40 20C40 8.97188 31.028 0 20 0ZM20 36.3636C10.9771 36.3636 3.63636 29.0229 3.63636 20C3.63636 10.9771 10.9771 3.63636 20 3.63636C29.0229 3.63636 36.3636 10.9771 36.3636 20C36.3636 29.0229 29.0229 36.3636 20 36.3636Z" fill="black"/>
<path d="M25.6563 15.4086L21.8176 19.2469V9.09089C21.8176 8.08664 21.0036 7.27271 19.9994 7.27271C18.9953 7.27271 18.1813 8.08664 18.1813 9.09089V19.2469L14.3431 15.4086C13.6331 14.6986 12.4819 14.6986 11.7718 15.4086C11.0617 16.1188 11.0617 17.2698 11.7718 17.9799L18.7137 24.9218C19.0688 25.2769 19.5341 25.4545 19.9993 25.4545C20.4645 25.4545 20.93 25.2769 21.285 24.922L28.2274 17.9801C28.9374 17.2702 28.9375 16.1189 28.2276 15.4086C27.5174 14.6986 26.3662 14.6986 25.6563 15.4086Z" fill="black"/>
<path d="M23.6368 29.0909H16.3641C15.36 29.0909 14.5459 29.9049 14.5459 30.9091C14.5459 31.9131 15.36 32.7273 16.3641 32.7273H23.6368C24.6409 32.7273 25.455 31.9131 25.455 30.9091C25.455 29.9049 24.6409 29.0909 23.6368 29.0909Z" fill="black"/>
</g>
<defs>
<clipPath id="clip0_241_1313">
<rect width="40" height="40" fill="white"/>
</clipPath>
</defs>
</svg>
