<svg width="21" height="21" viewBox="0 0 21 21" fill="none" xmlns="http://www.w3.org/2000/svg">
<g clip-path="url(#clip0_99_16)">
<path d="M18.17 0H2.82979C1.26697 0 0 1.26692 0 2.82979V18.1701C0 19.733 1.26692 20.9999 2.82979 20.9999H10.3955L10.4084 13.4957H8.45881C8.20545 13.4957 7.99981 13.2908 7.99883 13.0374L7.98948 10.6185C7.98851 10.3638 8.19476 10.1567 8.44951 10.1567H10.3956V7.81944C10.3956 5.10703 12.0521 3.63011 14.4718 3.63011H16.4573C16.7113 3.63011 16.9173 3.83605 16.9173 4.09014V6.12979C16.9173 6.38377 16.7115 6.58966 16.4575 6.58982L15.2391 6.59038C13.9232 6.59038 13.6684 7.21567 13.6684 8.13332V10.1568H16.5598C16.8353 10.1568 17.0491 10.3974 17.0166 10.671L16.7299 13.0899C16.7025 13.3214 16.5062 13.4958 16.2731 13.4958H13.6813L13.6684 21H18.1701C19.7329 21 20.9998 19.7331 20.9998 18.1703V2.82979C20.9998 1.26692 19.7329 0 18.17 0Z" fill="white"/>
</g>
<defs>
<clipPath id="clip0_99_16">
<rect width="21" height="21" fill="white"/>
</clipPath>
</defs>
</svg>
