<svg width="25" height="26" viewBox="0 0 25 26" fill="none" xmlns="http://www.w3.org/2000/svg">
<g clip-path="url(#clip0_219_532)">
<path d="M21.6311 0.705139H3.36892C1.50842 0.705139 0.00012207 2.21338 0.00012207 4.07394V22.3362C0.00012207 24.1968 1.50836 25.705 3.36892 25.705H12.3757L12.3911 16.7714H10.0701C9.76851 16.7714 9.5237 16.5275 9.52254 16.2259L9.51141 13.3462C9.51025 13.043 9.75579 12.7965 10.0591 12.7965H12.3758V10.014C12.3758 6.78494 14.3479 5.02669 17.2284 5.02669H19.5921C19.8945 5.02669 20.1398 5.27187 20.1398 5.57435V8.0025C20.1398 8.30486 19.8947 8.54998 19.5924 8.55016L18.1419 8.55083C16.5753 8.55083 16.272 9.29523 16.272 10.3877V12.7966H19.7142C20.0422 12.7966 20.2966 13.0829 20.258 13.4087L19.9167 16.2883C19.884 16.5639 19.6503 16.7715 19.3729 16.7715H16.2874L16.272 25.7051H21.6312C23.4917 25.7051 24.9999 24.1969 24.9999 22.3364V4.07394C24.9999 2.21338 23.4916 0.705139 21.6311 0.705139Z" fill="#475993"/>
</g>
<defs>
<clipPath id="clip0_219_532">
<rect width="25" height="26" fill="white" transform="translate(0 0.705139)"/>
</clipPath>
</defs>
</svg>
