<svg width="21" height="21" viewBox="0 0 21 21" fill="none" xmlns="http://www.w3.org/2000/svg">
<g clip-path="url(#clip0_99_43)">
<path d="M2.69641 0.0012207H18.3049C19.7877 0.0012207 21 1.21389 21 2.69677V18.3052C21 19.7877 19.7877 20.9995 18.3049 20.9995H2.69641C1.21353 20.9995 0 19.7876 0 18.3052V2.69677C0 1.21389 1.21353 0.0012207 2.69641 0.0012207ZM15.2982 2.33341C14.7776 2.33341 14.3528 2.75977 14.3528 3.28017V5.54214C14.3528 6.06271 14.7775 6.48813 15.2982 6.48813H17.6714C18.1913 6.48813 18.6168 6.06276 18.6168 5.54214V3.28013C18.6168 2.75977 18.1912 2.33337 17.6714 2.33337C17.6714 2.33341 15.2982 2.33341 15.2982 2.33341ZM18.6259 8.8811H16.7782C16.9534 9.45335 17.0484 10.0568 17.0484 10.6842C17.0484 14.176 14.1248 17.008 10.5198 17.008C6.91569 17.008 3.99197 14.176 3.99197 10.6842C3.99197 10.0568 4.08786 9.45335 4.26222 8.8811H2.33449V17.7523C2.33449 18.2117 2.70962 18.5855 3.16862 18.5855H17.7921C18.2515 18.5855 18.6259 18.2117 18.6259 17.7523V8.8811V8.8811ZM10.5198 6.36881C8.1916 6.36881 6.30299 8.19778 6.30299 10.456C6.30299 12.7119 8.1916 14.5422 10.5198 14.5422C12.8493 14.5422 14.7379 12.7119 14.7379 10.456C14.7379 8.1977 12.8493 6.36881 10.5198 6.36881Z" fill="white"/>
</g>
<defs>
<clipPath id="clip0_99_43">
<rect width="21" height="21" fill="white"/>
</clipPath>
</defs>
</svg>
