<svg width="21" height="20" viewBox="0 0 21 20" fill="none" xmlns="http://www.w3.org/2000/svg">
<g clip-path="url(#clip0_55_127)">
<path d="M20.1626 18.5675L14.4243 12.8251C15.5556 11.4684 16.236 9.73459 16.236 7.84095C16.236 3.52083 12.6905 0.00817871 8.32942 0.00817871C3.96832 0.00817871 0.414673 3.52493 0.414673 7.84505C0.414673 12.1652 3.96012 15.6778 8.32122 15.6778C10.1739 15.6778 11.879 15.0425 13.2316 13.9809L18.9903 19.7397C19.3264 20.0758 19.8265 20.0758 20.1626 19.7397C20.4987 19.4036 20.4987 18.9036 20.1626 18.5675ZM2.09517 7.84505C2.09517 4.45126 4.89054 1.69278 8.32122 1.69278C11.7519 1.69278 14.5473 4.45126 14.5473 7.84505C14.5473 11.2388 11.7519 13.9973 8.32122 13.9973C4.89054 13.9973 2.09517 11.2347 2.09517 7.84505Z" fill="black"/>
</g>
<defs>
<clipPath id="clip0_55_127">
<rect width="20" height="20" fill="white" transform="translate(0.414673)"/>
</clipPath>
</defs>
</svg>
