<svg width="22" height="22" viewBox="0 0 22 22" fill="none" xmlns="http://www.w3.org/2000/svg">
<g clip-path="url(#clip0_216_254)">
<path d="M18.7605 17.6313L13.3091 12.176C14.3839 10.8872 15.0302 9.24009 15.0302 7.44113C15.0302 3.33702 11.6621 0 7.51901 0C3.37596 0 0 3.34092 0 7.44502C0 11.5491 3.36817 14.8862 7.51122 14.8862C9.27124 14.8862 10.8911 14.2826 12.176 13.2741L17.6469 18.745C17.9662 19.0642 18.4412 19.0642 18.7605 18.745C19.0798 18.4257 19.0798 17.9506 18.7605 17.6313ZM1.59648 7.44502C1.59648 4.22092 4.25207 1.60037 7.51122 1.60037C10.7704 1.60037 13.426 4.22092 13.426 7.44502C13.426 10.6691 10.7704 13.2897 7.51122 13.2897C4.25207 13.2897 1.59648 10.6652 1.59648 7.44502Z" fill="black"/>
</g>
<defs>
<clipPath id="clip0_216_254">
<rect width="22" height="22" fill="white"/>
</clipPath>
</defs>
</svg>
