<svg width="25" height="25" viewBox="0 0 25 25" fill="none" xmlns="http://www.w3.org/2000/svg">
<g clip-path="url(#clip0_216_254)">
<path d="M24.6849 23.1991L17.512 16.0211C18.9261 14.3252 19.7766 12.158 19.7766 9.79096C19.7766 4.39082 15.3448 0 9.89343 0C4.44205 0 0 4.39594 0 9.79609C0 15.1962 4.43181 19.587 9.88318 19.587C12.199 19.587 14.3304 18.7929 16.0211 17.4659L23.2196 24.6644C23.6397 25.0845 24.2648 25.0845 24.6849 24.6644C25.105 24.2443 25.105 23.6192 24.6849 23.1991ZM2.10062 9.79609C2.10062 5.55385 5.59484 2.10575 9.88318 2.10575C14.1715 2.10575 17.6657 5.55385 17.6657 9.79609C17.6657 14.0383 14.1715 17.4864 9.88318 17.4864C5.59484 17.4864 2.10062 14.0332 2.10062 9.79609Z" fill="#0072B6"/>
</g>
<defs>
<clipPath id="clip0_216_254">
<rect width="25" height="25" fill="white"/>
</clipPath>
</defs>
</svg>
