<svg width="30" height="30" viewBox="0 0 30 30" fill="none" xmlns="http://www.w3.org/2000/svg">
<path d="M29.0199 1.41333C28.9443 1.41333 28.8672 1.42217 28.7898 1.44069L15 4.73918L1.21023 1.44076C1.13279 1.42223 1.05562 1.4134 0.980082 1.4134C0.453745 1.4132 0 1.84102 0 2.39557V24.2515C0 24.7058 0.311639 25.1008 0.753471 25.2064C0.903956 25.2424 14.6962 28.5419 14.7864 28.5622C14.857 28.5779 14.929 28.5865 15.0027 28.5865C15.0762 28.5865 15.1513 28.5779 15.2284 28.5596L29.2465 25.2064C29.6884 25.1008 30 24.7058 30 24.2515V2.39557C30 1.84083 29.546 1.41333 29.0199 1.41333ZM28.0364 23.4768L15.0013 26.5947C15.0009 26.5946 15.0004 26.5945 15 26.5944V6.75825H15.0001L15.4569 6.64901L28.0364 3.64003V23.4768V23.4768Z" fill="black"/>
<path d="M17.2573 15.3397L22.3719 14.0862C22.7035 14.005 22.9366 13.7077 22.9366 13.3664V8.76077C22.9366 8.27999 22.486 7.92652 22.0191 8.04094L16.9045 9.2945C16.573 9.3758 16.3398 9.67297 16.3398 10.0143V14.6199C16.3398 15.1007 16.7904 15.4542 17.2573 15.3397Z" fill="black"/>
<path d="M16.3696 18.4754C16.4814 18.9213 16.8815 19.2187 17.3212 19.2187C17.4002 19.2187 17.4806 19.209 17.5607 19.1889L25.8839 17.1239C26.4099 16.992 26.7293 16.4587 26.5974 15.9327C26.4655 15.4067 25.932 15.0872 25.4062 15.2192L17.0831 17.2842C16.5571 17.4161 16.2377 17.9494 16.3696 18.4754Z" fill="black"/>
<path d="M25.4062 18.7978L17.0831 20.8628C16.5571 20.9947 16.2377 21.528 16.3696 22.054C16.4814 22.4999 16.8815 22.7973 17.3212 22.7973C17.4002 22.7973 17.4806 22.7877 17.5607 22.7676L25.8839 20.7025C26.4099 20.5706 26.7293 20.0374 26.5974 19.5114C26.4655 18.9853 25.932 18.6658 25.4062 18.7978Z" fill="black"/>
</svg>
