<svg width="21" height="21" viewBox="0 0 21 21" fill="none" xmlns="http://www.w3.org/2000/svg">
<path fill-rule="evenodd" clip-rule="evenodd" d="M8.33175 13.6089L8.33109 7.70853L14.005 10.6689L8.33175 13.6089ZM20.79 6.68609C20.79 6.68609 20.5846 5.23906 19.9552 4.60184C19.1566 3.76513 18.2615 3.76119 17.8513 3.71263C14.9126 3.5 10.5046 3.5 10.5046 3.5H10.4954C10.4954 3.5 6.08738 3.5 3.14869 3.71263C2.73787 3.76119 1.84341 3.76513 1.04409 4.60184C0.41475 5.23906 0.21 6.68609 0.21 6.68609C0.21 6.68609 0 8.38578 0 10.0848V11.6782C0 13.3779 0.21 15.0769 0.21 15.0769C0.21 15.0769 0.41475 16.5239 1.04409 17.1612C1.84341 17.9979 2.89275 17.9716 3.36 18.0589C5.04 18.2203 10.5 18.2702 10.5 18.2702C10.5 18.2702 14.9126 18.2637 17.8513 18.051C18.2615 18.0018 19.1566 17.9979 19.9552 17.1612C20.5846 16.5239 20.79 15.0769 20.79 15.0769C20.79 15.0769 21 13.3779 21 11.6782V10.0848C21 8.38578 20.79 6.68609 20.79 6.68609Z" fill="white"/>
</svg>
