<svg width="180" height="180" viewBox="0 0 180 180" fill="none" xmlns="http://www.w3.org/2000/svg">
<g clip-path="url(#clip0_339_7)">
<path d="M90.0002 180C139.706 180 180 139.706 180 90.0002C180 40.2945 139.706 0 90.0002 0C40.2945 0 0 40.2945 0 90.0002C0 139.706 40.2945 180 90.0002 180Z" fill="#D42428"/>
<path d="M153.637 26.3507C188.784 61.501 188.787 118.488 153.637 153.638C118.49 188.786 61.4995 188.787 26.3492 153.638L153.637 26.3507Z" fill="#CC202D"/>
<path d="M178.191 108.026L133.647 63.4832L81.1121 69.4647L49.3344 118.661L108.713 178.039C143.625 170.653 171.071 143.038 178.191 108.026Z" fill="#BA202E"/>
<path d="M137.098 72.6326C137.098 65.0878 130.985 58.9726 123.445 58.9726H59.3904C51.8513 58.9726 45.7403 65.0894 45.7403 72.6326V109.262C45.7403 116.807 51.8525 122.922 59.3904 122.922H123.444C130.986 122.922 137.096 116.805 137.096 109.262V72.6326H137.098ZM82.2803 106.4V71.9961L108.371 89.1988L82.2803 106.4Z" fill="white"/>
</g>
<defs>
<clipPath id="clip0_339_7">
<rect width="180" height="180" fill="white"/>
</clipPath>
</defs>
</svg>
